<svg width="40" height="32" viewBox="0 0 40 32" fill="none" xmlns="http://www.w3.org/2000/svg">
<g clip-path="url(#clip0_1203_16152)">
<g style="mix-blend-mode:multiply">
<path d="M31.4696 28.4219C31.5973 26.1589 27.2987 24.0776 21.877 23.772C16.4552 23.4664 11.954 25.0562 11.8307 27.3148C11.7074 29.5733 15.9972 31.6591 21.4233 31.9646C26.8494 32.2702 31.3418 30.6804 31.4696 28.4219Z" fill="#B8B5AA"/>
</g>
<path d="M12.252 27.0134C12.252 28.6077 15.7226 29.9008 19.9991 29.9008C24.2757 29.9008 27.7463 28.6032 27.7463 27.0134C27.7463 25.4236 24.2757 19.3965 19.9991 19.3965C15.7226 19.3965 12.252 25.4192 12.252 27.0134Z" fill="#9C5723"/>
<path d="M40 7.44866C40 3.33462 31.046 0 20 0C8.95397 0 0 3.33462 0 7.44866C0 11.5627 8.95397 27.1243 20 27.1243C31.046 27.1243 40 11.5671 40 7.44866Z" fill="#B4703D"/>
<g style="mix-blend-mode:screen" opacity="0.5">
<path d="M2.24535 4.42843C1.00333 6.07139 0.483624 7.8472 0.924055 9.49901C1.9943 13.4846 11.4416 27.0224 18.1009 25.2067C24.7602 23.3911 26.1167 6.89951 25.0465 2.93161C24.8401 2.16347 24.4448 1.4599 23.897 0.885668C22.4876 0.7661 21.0254 0.704102 19.5235 0.704102C12.1507 0.717387 5.72476 2.2142 2.24535 4.42843Z" fill="#B4703D"/>
</g>
<path d="M40 7.44866C40 3.33462 31.046 0 20 0C8.95397 0 0 3.33462 0 7.44866C0 11.5627 8.95397 14.9017 20 14.9017C31.046 14.9017 40 11.5671 40 7.44866Z" fill="#E6BE8A"/>
<path d="M20.0007 13.706C30.3629 13.706 38.7631 10.7974 38.7631 7.20943C38.7631 3.62149 30.3629 0.712891 20.0007 0.712891C9.63849 0.712891 1.23828 3.62149 1.23828 7.20943C1.23828 10.7974 9.63849 13.706 20.0007 13.706Z" fill="#B4703D"/>
<path d="M19.9993 13.7281C27.4602 13.7281 34.0667 12.125 37.0572 9.88423C36.4318 6.83303 28.8784 4.34424 19.9993 4.34424C11.1202 4.34424 3.56682 6.83303 2.94141 9.86209C5.93634 12.1029 12.5384 13.7281 19.9993 13.7281Z" fill="#D6B300"/>
<path style="mix-blend-mode:screen" opacity="0.6" d="M5.72656 11.3634C9.18836 12.785 14.3502 13.7282 20.001 13.7282C26.8144 13.7282 32.9056 12.3997 36.1956 10.4512C33.9935 7.74982 28.0432 5.75259 21.2518 5.75259C13.6984 5.73045 7.17999 8.20152 5.72656 11.3634Z" fill="url(#paint0_linear_1203_16152)"/>
<path d="M2.95573 10.6284C2.80158 11.1244 4.77031 12.1828 7.36005 12.9932C9.94979 13.8036 12.1564 14.056 12.3061 13.56C12.4558 13.064 10.2185 12.9046 7.63752 12.0942C5.05659 11.2838 3.10989 10.1235 2.95573 10.6284Z" fill="white"/>
<path d="M7.88019 16.3854C7.19752 15.3669 6.40475 14.6982 6.11847 14.8974C5.83219 15.0967 6.14049 16.0843 6.81875 17.1117C7.49702 18.1391 8.2942 18.7989 8.58048 18.5996C8.86676 18.4004 8.56286 17.404 7.88019 16.3854Z" fill="white"/>
<path d="M10.0594 19.7596C9.65422 19.4274 9.20938 19.3167 9.06404 19.485C8.9187 19.6533 9.1257 20.0829 9.52649 20.415C9.92729 20.7471 10.3765 20.8578 10.5219 20.6851C10.6672 20.5124 10.4602 20.0917 10.0594 19.7596Z" fill="white"/>
<path d="M14.1211 27.4563C13.6807 27.164 13.2402 27.0799 13.1037 27.2747C12.9672 27.4696 13.2182 27.8637 13.6498 28.1604C14.0815 28.4571 14.5307 28.5324 14.6628 28.342C14.795 28.1516 14.5351 27.753 14.1211 27.4563Z" fill="white"/>
<path d="M23.1016 6.99671C22.4277 7.16942 21.9301 7.5237 21.9961 7.78498C22.0622 8.04625 22.6656 8.11711 23.3438 7.93997C24.0221 7.76283 24.5154 7.41741 24.4493 7.15614C24.3833 6.89486 23.7843 6.824 23.1016 6.99671ZM23.2778 7.68755C22.7581 7.8204 22.2956 7.79383 22.256 7.62555C22.2163 7.45727 22.5995 7.20928 23.1368 7.07642C23.6742 6.94357 24.119 6.97014 24.163 7.13842C24.2071 7.3067 23.7843 7.5547 23.2778 7.68755Z" fill="#7FA100"/>
<path d="M28.8878 8.94974C28.1346 8.59546 27.4167 8.54675 27.2802 8.8346C27.1437 9.12245 27.6458 9.64501 28.3989 9.99928C29.152 10.3536 29.8699 10.4023 30.0065 10.11C30.143 9.81772 29.6409 9.29959 28.8878 8.94974ZM28.531 9.71586C27.9497 9.44573 27.5489 9.06931 27.6502 8.88331C27.7515 8.69732 28.28 8.76374 28.8614 9.03388C29.4427 9.30402 29.8479 9.68043 29.7422 9.87086C29.6365 10.0613 29.1124 9.99043 28.531 9.71586Z" fill="#7FA100"/>
<path d="M15.9703 10.0925C15.4594 10.1235 15.0542 10.3715 15.0586 10.6505C15.063 10.9295 15.4991 11.1244 16.0012 11.0934C16.5032 11.0624 16.9217 10.8099 16.9128 10.5354C16.904 10.2608 16.4812 10.0615 15.9703 10.0925ZM15.9923 10.8277C15.6004 10.8498 15.2744 10.7214 15.27 10.5442C15.2656 10.3671 15.5783 10.1988 15.9747 10.1767C16.3711 10.1545 16.6926 10.2785 16.7014 10.4601C16.7102 10.6417 16.3887 10.8011 15.9923 10.8277Z" fill="#7FA100"/>
<path d="M15.4723 7.3733L15.4062 7.43087C15.578 7.58144 15.6661 7.72315 15.622 7.81172C15.578 7.90029 15.0847 7.89586 14.6002 7.65229L14.4901 7.59472C14.2966 7.54027 14.121 7.43478 13.9816 7.28917C13.8422 7.14357 13.7441 6.96316 13.6973 6.7666C13.6399 6.78544 13.5913 6.82483 13.5608 6.87731C13.4375 7.12088 13.8515 7.57258 14.4813 7.887C15.1111 8.20142 15.7189 8.26785 15.8378 8.02428C15.9171 7.86486 15.763 7.61686 15.4723 7.3733Z" fill="#7FA100"/>
<path d="M10.747 9.02059C10.3066 8.76374 9.86618 8.69731 9.76928 8.86559C9.67239 9.03387 9.94986 9.38372 10.3947 9.63614C10.8395 9.88856 11.2756 9.95942 11.3725 9.79114C11.4693 9.62286 11.1875 9.27301 10.747 9.02059ZM10.4872 9.46343C10.1481 9.26415 9.91903 9.02059 9.9851 8.90545C10.0512 8.79031 10.3771 8.86559 10.7162 9.06044C11.0553 9.25529 11.2844 9.50329 11.2227 9.61843C11.161 9.73357 10.8307 9.66714 10.4872 9.47229V9.46343Z" fill="#7FA100"/>
<path d="M5.87523 9.43257C5.46563 9.61414 5.19256 9.87542 5.26303 10.0481C5.3335 10.2208 5.70346 10.1854 6.14389 10.0038C6.58432 9.82228 6.82656 9.561 6.75609 9.39272C6.68562 9.22444 6.28043 9.25101 5.87523 9.43257ZM6.05581 9.84885C5.7431 9.99056 5.45241 10.0216 5.40397 9.9197C5.35552 9.81785 5.58014 9.623 5.89725 9.47686C6.21436 9.33072 6.50064 9.30415 6.54909 9.406C6.59754 9.50786 6.37292 9.71157 6.05581 9.84885Z" fill="#7FA100"/>
<path d="M19.1631 6.08898L19.075 6.1377C18.6346 6.33698 18.2514 6.39012 18.1942 6.25284C18.1369 6.11555 18.4232 5.84099 18.8504 5.63728L19.009 5.56643V5.5C18.949 5.52212 18.8902 5.54725 18.8328 5.57528C18.2823 5.83656 17.9167 6.21741 18.0136 6.42998C18.1105 6.64254 18.6434 6.60268 19.194 6.34141L19.2997 6.28826C19.2471 6.22703 19.2013 6.16021 19.1631 6.08898Z" fill="#7FA100"/>
<path d="M12.8827 11.6688C12.9356 11.8193 12.9312 11.9389 12.8827 12.0009C12.8343 12.0629 12.4863 12.0009 12.156 11.7883L11.6055 11.8193C12.2133 12.3596 12.8343 12.6076 13.0721 12.3773C13.2086 12.24 13.1822 11.961 13.0325 11.6289L12.8827 11.6688Z" fill="#7FA100"/>
<path d="M23.2504 12.5681C22.9861 12.6478 22.7791 12.6478 22.735 12.5681C22.691 12.4884 22.9509 12.1739 23.3516 11.9791C23.7524 11.7842 24.1312 11.7311 24.1929 11.8595C24.2545 11.9879 24.1929 12.0101 24.0784 12.1075H24.1664C24.2293 12.0987 24.293 12.0987 24.3558 12.1075C24.3951 12.0693 24.4235 12.0212 24.4382 11.9683C24.4529 11.9154 24.4534 11.8595 24.4395 11.8064C24.3426 11.6071 23.8405 11.647 23.3208 11.9038C22.8011 12.1607 22.44 12.5238 22.5545 12.7231C22.669 12.9223 22.8716 12.8781 23.1843 12.8028C23.1887 12.7206 23.2112 12.6404 23.2504 12.5681Z" fill="#7FA100"/>
<path d="M26.9944 6.23102C26.9664 6.34444 26.9295 6.45549 26.8843 6.56315C26.7037 7.006 26.4439 7.31599 26.2985 7.25842C26.1532 7.20085 26.1928 6.79343 26.3734 6.35059C26.4104 6.25578 26.4545 6.16399 26.5055 6.07602L26.4483 6.03174C26.3998 6.12474 26.3514 6.21773 26.3073 6.31959C26.0739 6.89529 26.0607 7.43113 26.2765 7.52413C26.4923 7.61712 26.8623 7.22299 27.1001 6.63844C27.158 6.49455 27.2051 6.34652 27.241 6.19559C27.1608 6.21853 27.0778 6.23045 26.9944 6.23102Z" fill="#7FA100"/>
<path d="M34.4646 9.71179C34.438 9.64944 34.3962 9.59483 34.3431 9.55303C34.29 9.51123 34.2272 9.48358 34.1607 9.47266H34.1298L33.8876 9.54794C33.9977 9.57894 34.077 9.62322 34.0946 9.68965C34.1519 9.89779 33.6806 10.2034 33.0464 10.3805C32.6669 10.5281 32.2482 10.539 31.8616 10.4115C31.7358 10.4465 31.6078 10.4732 31.4784 10.4912C31.4759 10.5029 31.4759 10.515 31.4784 10.5266C31.5665 10.8455 32.302 10.9163 33.1257 10.6905C33.9493 10.4646 34.5482 10.0306 34.4646 9.71179Z" fill="#7FA100"/>
<path d="M29.9047 6.91748C29.2088 6.91748 28.6451 7.12119 28.6407 7.39133C28.6362 7.66146 29.2 7.87845 29.8959 7.88288C30.5918 7.88731 31.1555 7.67917 31.1599 7.41347C31.1643 7.14776 30.6006 6.92191 29.9047 6.91748ZM29.9047 7.6216C29.3674 7.6216 28.9313 7.47547 28.9313 7.30276C28.9313 7.13005 29.3718 6.99276 29.9091 6.99719C30.4464 7.00162 30.878 7.14333 30.878 7.32047C30.878 7.49761 30.4332 7.63046 29.9003 7.6216H29.9047Z" fill="#7FA100"/>
<path d="M24.044 9.59626C24.436 9.26856 24.7839 9.12685 24.9249 9.25527C25.0658 9.3837 25.0394 9.55641 24.9557 9.8354C25.1134 9.90616 25.2614 9.99695 25.3961 10.1055C25.6031 9.56083 25.6252 9.11356 25.3961 8.92757C25.0922 8.68843 24.4492 8.96742 23.793 9.57412L24.044 9.59626Z" fill="#7FA100"/>
<path d="M21.9383 11.0713L21.8942 11.0048C21.0442 11.3326 20.3043 11.3901 20.181 11.1111C20.0576 10.8321 20.5333 10.3849 21.2556 9.99516C21.2248 9.95087 21.1984 9.90659 21.1719 9.8623C20.1854 10.3893 19.5644 11.0757 19.7493 11.492C19.9343 11.9082 21.0222 11.9082 22.1893 11.43C22.0978 11.3162 22.0139 11.1963 21.9383 11.0713Z" fill="#7FA100"/>
<path d="M27.35 12.6431C26.7114 12.3375 26.2842 11.9478 26.3767 11.7308C26.4692 11.5138 27.1562 11.5492 27.8962 11.8636C28.0475 11.9296 28.1946 12.0051 28.3366 12.0895C28.3851 12.0674 28.4379 12.0541 28.4864 12.0364C28.3073 11.9278 28.1203 11.8331 27.927 11.7529C26.9713 11.3499 26.0684 11.3101 25.9142 11.6909C25.7601 12.0718 26.2269 12.4881 26.936 12.8733C27.0784 12.8047 27.2166 12.7278 27.35 12.6431Z" fill="#7FA100"/>
<path d="M19.057 12.2801C18.6165 12.2358 18.2113 12.3421 18.1761 12.5192C18.1409 12.6963 18.5196 12.8735 18.9777 12.9178C19.4357 12.962 19.8189 12.8425 19.8541 12.6786C19.8894 12.5148 19.515 12.3243 19.057 12.2801ZM19.0085 12.745C18.6562 12.7096 18.3787 12.59 18.3875 12.4749C18.3963 12.3598 18.6958 12.2978 19.0482 12.3332C19.4005 12.3686 19.6824 12.4882 19.6736 12.5989C19.6648 12.7096 19.3785 12.7805 19.0085 12.745Z" fill="#7FA100"/>
<path opacity="0.5" d="M19.8198 5.75704C20.7667 5.48248 20.9473 4.79607 23.5635 5.34519C26.1796 5.89432 25.9286 5.89432 24.5368 6.65159C23.145 7.40885 23.863 6.99701 21.489 6.92615C16.8953 6.79773 19.8198 5.75704 19.8198 5.75704Z" fill="#FCFBE6"/>
<path d="M23.4217 6.77564C23.3065 6.76991 23.1917 6.7566 23.0782 6.73579C22.5472 6.65635 22.0117 6.61049 21.475 6.5985C19.1804 6.53208 19.0879 6.23537 19.0879 6.23537C19.0879 6.15123 19.4314 5.91209 19.8763 5.75267C20.0943 5.68686 20.3053 5.59933 20.5061 5.49139C20.9267 5.25509 21.403 5.13729 21.8846 5.1504C22.4242 5.16359 22.9612 5.23034 23.4878 5.34968C24.1137 5.45302 24.7296 5.61006 25.3288 5.8191C25.1185 5.96521 24.896 6.09264 24.6638 6.19994L24.4127 6.3328C23.7829 6.67822 23.6199 6.77564 23.4217 6.77564Z" fill="#FCFBE6"/>
<path opacity="0.5" d="M19.4719 10.6504C17.7718 11.1597 19.0007 11.8549 14.2836 10.9028C9.5666 9.9507 10.7249 9.25986 10.9672 9.13144C13.2927 7.74976 12.0991 8.61774 16.3713 8.71073C24.6073 8.85687 19.4719 10.6504 19.4719 10.6504Z" fill="#FCFBE6"/>
<path d="M17.6181 10.6284C16.5074 10.5998 15.4029 10.4513 14.3237 10.1856C11.8308 9.68518 11.201 9.2999 11.0469 9.1449L11.1262 9.09619C12.007 8.56478 12.3461 8.3965 12.6412 8.37435C12.8622 8.36525 13.0836 8.3786 13.3019 8.41421C14.3053 8.59282 15.3219 8.68615 16.3409 8.6932C19.6397 8.76406 20.4369 9.10062 20.6219 9.22462C20.2356 9.53009 19.7967 9.76128 19.327 9.9066C18.9756 10.005 18.6404 10.1542 18.3316 10.3494C18.1312 10.5196 17.8802 10.6177 17.6181 10.6284Z" fill="#FCFBE6"/>
<path opacity="0.5" d="M33.4114 7.76285C33.1252 7.38643 32.1298 8.52898 30.5046 9.7778C28.8794 11.0266 26.8798 11.6067 27.2498 11.9035C27.818 12.3463 31.0067 11.9035 32.6275 10.6502C34.2483 9.39695 34.2659 8.88768 33.4114 7.76285Z" fill="#FCFBE6"/>
<path d="M30.5049 9.77827C29.3378 10.664 27.9812 11.2264 27.4219 11.5762C28.1178 11.8154 30.7163 11.2441 32.1257 10.1591C33.5351 9.07414 33.6628 8.59587 33.0418 7.74561C32.5925 7.97146 31.7117 8.85715 30.5049 9.77827Z" fill="#FCFBE6"/>
</g>
<defs>
<linearGradient id="paint0_linear_1203_16152" x1="15.1386" y1="4.36205" x2="29.4641" y2="20.2621" gradientUnits="userSpaceOnUse">
<stop stop-color="white"/>
<stop offset="1"/>
</linearGradient>
<clipPath id="clip0_1203_16152">
<rect width="40" height="32" fill="white"/>
</clipPath>
</defs>
</svg>
