<svg width="18" height="18" viewBox="0 0 18 18" fill="none" xmlns="http://www.w3.org/2000/svg">
<path d="M8.00611 1.10384C8.4127 0.280131 9.5873 0.28013 9.99389 1.10384L11.8324 4.82839C11.9937 5.15519 12.3053 5.38181 12.6659 5.43452L16.7791 6.03571C17.6878 6.16854 18.05 7.28561 17.3921 7.92642L14.4176 10.8236C14.1562 11.0782 14.0369 11.4452 14.0986 11.8049L14.8003 15.8965C14.9556 16.802 14.0051 17.4925 13.192 17.0649L9.5159 15.1316C9.19293 14.9618 8.80707 14.9618 8.48411 15.1316L4.80802 17.0649C3.99488 17.4925 3.04439 16.802 3.1997 15.8965L3.90145 11.8049C3.96314 11.4452 3.84381 11.0782 3.58238 10.8236L0.607895 7.92642C-0.0500285 7.28561 0.31217 6.16854 1.22094 6.03571L5.33405 5.43452C5.69467 5.38181 6.00633 5.15519 6.16764 4.82839L8.00611 1.10384Z" fill="#F9B043"/>
</svg>
