<svg width="215" height="161" viewBox="0 0 215 161" fill="none" xmlns="http://www.w3.org/2000/svg">
<g style="mix-blend-mode:multiply">
<path d="M200.779 143.58C200.525 143.17 200.192 142.814 199.8 142.534C201.333 141.389 201.464 139.263 199.8 136.908C199.034 135.785 198.073 134.81 196.962 134.029C197.936 133.382 198.696 132.46 199.148 131.38C199.359 130.725 199.438 130.034 199.379 129.349C199.321 128.663 199.126 127.996 198.807 127.387C198.488 126.777 198.051 126.238 197.521 125.8C196.991 125.363 196.38 125.035 195.722 124.838C198.267 123.53 198.984 121.567 197.516 120.193C195.952 119.229 194.212 118.585 192.398 118.298C190.584 118.012 188.731 118.089 186.947 118.525L186.588 118.198C186.784 117.969 187.012 117.773 187.175 117.544C187.675 116.928 188.007 116.192 188.137 115.408C188.268 114.625 188.193 113.821 187.92 113.075C187.647 112.329 187.185 111.668 186.58 111.155C185.974 110.643 185.247 110.297 184.468 110.151C183.748 109.922 183.003 109.78 182.249 109.726C180.067 107.164 177.073 105.431 173.768 104.82C171.799 104.258 169.776 103.907 167.733 103.773C167.669 103.401 167.559 103.039 167.406 102.694C166.611 100.998 165.365 99.5547 163.806 98.5219C162.246 97.4892 160.433 96.9068 158.566 96.8388H157.652C154.497 94.827 150.78 93.8866 147.05 94.1566C145.78 94.1747 144.513 94.3061 143.266 94.5491C143.282 94.4188 143.282 94.287 143.266 94.1566C143.228 92.3796 142.544 90.6777 141.342 89.3708C140.141 88.0638 138.505 87.2416 136.742 87.0587C135.845 86.9104 134.931 86.9104 134.034 87.0587C130.556 84.959 126.494 84.0412 122.453 84.4419C120.682 84.4795 118.925 84.7658 117.234 85.2924C116.262 83.6809 114.901 82.3414 113.276 81.3979C111.65 80.4545 109.814 79.9377 107.937 79.8954C106.972 79.8115 106.012 80.1052 105.258 80.7148C104.504 81.3245 104.014 82.2029 103.891 83.1663C103.891 83.0027 103.728 82.8065 103.598 82.6102C102.521 80.999 101.064 79.6787 99.3575 78.7659C97.6506 77.8531 95.7458 77.376 93.8113 77.3767C92.9738 77.4314 92.1697 77.7266 91.4951 78.2272C88.3996 76.9528 85.034 76.4804 81.7085 76.8534C79.9809 76.9676 78.2838 77.3654 76.6847 78.0309C75.6058 76.5946 74.2123 75.4258 72.6117 74.6149C71.011 73.8039 69.246 73.3723 67.4527 73.3535C66.8131 73.3094 66.173 73.4319 65.5946 73.7091C65.0161 73.9862 64.5189 74.4086 64.1513 74.9352C63.7836 75.4618 63.558 76.0748 63.4963 76.7147C63.4346 77.3545 63.5389 77.9995 63.7991 78.587C62.3826 77.0834 60.6569 75.9067 58.7417 75.1386C56.8265 74.3704 54.7675 74.0292 52.7076 74.1385C52.1247 74.1373 51.5522 74.2928 51.0495 74.5887C50.5469 74.8845 50.1325 75.31 49.8494 75.8209C49.5663 76.3318 49.4249 76.9094 49.44 77.4937C49.455 78.0779 49.6258 78.6474 49.9347 79.143C48.3698 77.7471 46.5313 76.6944 44.5371 76.0523C42.5429 75.4102 40.4368 75.1928 38.3539 75.4142C35.418 76.2319 35.5485 79.1757 38.3539 82.1196L37.1143 81.7598C31.5033 80.2224 26.2186 80.5495 25.3052 82.4794C24.9137 83.2317 25.3052 84.1149 26.2512 84.998C24.7678 84.5129 23.1883 84.4006 21.6515 84.6709C18.3893 85.4232 18.3893 88.4979 21.6515 91.6053C20.7568 91.8679 19.9251 92.3109 19.2071 92.9071C18.4891 93.5033 17.9 94.2401 17.4759 95.0725C17.0286 96.0121 16.9045 97.0739 17.1229 98.0918C17.3413 99.1097 17.8899 100.026 18.6829 100.698C16.2036 101.091 14.6052 101.941 14.5725 103.152C14.5399 104.362 17.4107 106.619 21.4232 107.698C19.6616 107.895 18.3893 108.418 17.9652 109.268C16.9866 111.198 20.836 114.077 26.5448 115.647L27.6213 115.908C26.7405 116.366 26.2186 116.922 26.186 117.642C26.186 119.801 31.0466 122.221 37.0491 123.006H37.2122C35.9725 123.562 35.2875 124.282 35.418 125.165C35.7442 127.324 40.7027 129.417 46.4768 129.875C47.3902 129.875 48.271 129.875 49.0866 129.875C47.2924 131.347 47.0314 133.146 48.7277 134.454C51.8993 136.188 55.6176 136.622 59.1015 135.665C61.6278 138.236 65.0033 139.795 68.5945 140.048C70.4999 140.382 72.4365 140.503 74.3686 140.408C74.4186 140.651 74.484 140.892 74.5643 141.127C75.3492 142.925 76.621 144.467 78.2356 145.577C79.8501 146.687 81.7427 147.321 83.6985 147.407C85.0912 147.468 86.4513 146.974 87.4826 146.034L88.1024 146.917C89.4211 148.461 91.0807 149.676 92.9493 150.465C94.818 151.255 96.8443 151.596 98.8677 151.463C99.5406 151.366 100.173 151.083 100.694 150.646C100.94 151.209 101.303 151.714 101.758 152.126C102.214 152.538 102.752 152.847 103.337 153.033C104.716 153.518 106.185 153.693 107.639 153.546C109.094 153.399 110.498 152.934 111.753 152.183C111.876 152.539 112.076 152.863 112.341 153.132C114.33 155.159 119.876 155.912 124.769 154.8C125.811 154.576 126.828 154.247 127.803 153.818C128.298 155.469 129.273 156.934 130.605 158.024C131.936 159.114 133.562 159.779 135.274 159.935C136.356 160.102 137.462 159.964 138.47 159.536C139.479 159.109 140.348 158.409 140.983 157.515C141.563 158.357 142.381 159.006 143.331 159.379C145.12 159.998 147.041 160.124 148.894 159.744C150.748 159.364 152.465 158.493 153.868 157.22C154.434 157.947 155.191 158.502 156.054 158.823C157.913 159.466 159.909 159.599 161.837 159.208C163.764 158.816 165.552 157.916 167.015 156.599C167.521 157.133 168.132 157.556 168.809 157.842C170.623 158.492 172.575 158.652 174.47 158.308C176.365 157.963 178.136 157.126 179.607 155.879C180.096 155.475 180.501 154.979 180.798 154.417C181.095 153.856 181.278 153.241 181.336 152.608C185.446 154.146 189.655 154.44 191.123 153.197C192.591 151.954 191.449 149.926 188.48 147.865C189.804 147.981 191.136 147.981 192.46 147.865C198.234 147.734 201.888 145.772 200.779 143.58Z" fill="#B8B5AA"/>
</g>
<path d="M204.66 97.7216C204.386 97.1102 203.986 96.5639 203.486 96.1189C204.116 94.4836 204.364 92.7255 204.211 90.9792C204.058 89.2328 203.509 87.5448 202.605 86.0444C201.779 84.4526 200.674 83.0232 199.343 81.8249C200.265 80.0909 200.831 78.1889 201.006 76.2316C201.594 70.9981 199.571 66.4188 196.407 65.3067C197.52 64.1146 198.213 62.5888 198.378 60.9638C198.543 59.3388 198.171 57.7043 197.32 56.3116C195.134 53.8584 190.567 54.2837 186.587 57.1621L186.163 56.606C186.326 56.1481 186.49 55.7229 186.62 55.2322C188.186 49.3773 186.392 43.8494 182.64 42.8354C181.901 42.6551 181.129 42.6551 180.389 42.8354C179.41 41.2073 178.066 39.8304 176.463 38.814C174.861 37.7977 173.044 37.1699 171.157 36.9804C169.132 36.5835 167.049 36.5835 165.024 36.9804C164.896 36.3577 164.721 35.7455 164.502 35.1487C162.61 29.6862 158.239 26.2845 154.716 27.4947C154.412 27.6386 154.118 27.8025 153.835 27.9854C152.329 26.7554 150.508 25.9769 148.58 25.7397C146.652 25.5024 144.697 25.816 142.939 26.6443C141.638 27.1145 140.408 27.764 139.286 28.5741V27.9199C138.927 21.836 135.436 17.0605 131.489 17.3548C130.519 17.4027 129.586 17.7449 128.814 18.3361C127.138 17.0734 125.14 16.3113 123.051 16.1376C120.961 15.964 118.865 16.386 117.005 17.3548C115.114 18.1056 113.386 19.2164 111.916 20.6258C109.6 15.5558 105.163 12.5793 101.803 14.0839C100.57 14.8335 99.5967 15.9442 99.0133 17.266C98.43 18.5879 98.2651 20.0574 98.5408 21.4762C98.5408 21.1818 98.3124 20.8874 98.1493 20.5931C95.6048 15.4904 90.842 12.7428 87.5798 14.3783C86.646 14.8932 85.9024 15.6961 85.4594 16.6679C83.8477 16.0122 82.1082 15.7333 80.3729 15.8523C78.6376 15.9713 76.9521 16.4852 75.4445 17.3548C73.6033 18.3049 71.9894 19.6441 70.7143 21.28C68.1371 16.8642 63.9289 14.5091 60.9277 15.9156C57.9265 17.3221 56.8499 21.836 58.2527 26.5789C54.7295 22.0323 49.6405 20.037 46.5414 22.2285C45.3229 23.4198 44.5192 24.9725 44.2489 26.6572C43.9787 28.342 44.2563 30.0691 45.0408 31.5834C41.0283 27.5274 35.7435 26.2191 32.9707 28.705C30.1978 31.1909 30.9155 36.3917 34.3082 40.7747C33.8928 40.6421 33.4673 40.5436 33.0359 40.4803C27.2618 39.5972 22.1076 41.9522 21.553 45.7138C21.4179 46.4786 21.45 47.2637 21.6471 48.0148C21.8442 48.7659 22.2017 49.4651 22.6948 50.0642C21.9079 49.8707 21.0883 49.8524 20.2936 50.0106C19.4989 50.1688 18.7485 50.4997 18.0951 50.98C15.1917 53.3678 15.7789 58.8957 19.3347 63.4423C17.4104 65.5707 16.191 68.2446 15.8442 71.0962C15.5207 72.7948 15.5477 74.5419 15.9236 76.2296C16.2996 77.9173 17.0164 79.5098 18.0298 80.909C16.9588 81.4501 16.0572 82.2768 15.4241 83.2981C14.7911 84.3195 14.4511 85.4961 14.4414 86.6986C14.7024 89.6751 17.7036 91.9321 22.0097 92.5863C21.1947 92.9435 20.4748 93.4879 19.9082 94.1754C19.3415 94.8628 18.944 95.6742 18.7475 96.5441C18.1277 100.371 22.4338 104.263 28.3384 105.212H29.4475C28.6647 106.228 28.2816 107.497 28.371 108.777C28.7298 112.702 33.9493 115.319 40.017 114.861C39.4866 115.468 39.0926 116.183 38.8618 116.956C38.631 117.729 38.5688 118.543 38.6795 119.342C39.3646 123.071 44.6167 125.197 50.3908 124.118C51.2734 123.957 52.137 123.705 52.9679 123.366C52.1984 124.681 51.8572 126.203 51.9917 127.722C52.1262 129.24 52.7297 130.679 53.7182 131.837C56.067 134.062 60.2426 133.407 64.1246 130.562C65.2253 132.184 66.7535 133.468 68.5391 134.271C70.3246 135.073 72.2973 135.363 74.2375 135.108C76.2165 135.067 78.1677 134.633 79.9789 133.833C79.9789 134.258 80.1746 134.683 80.3051 135.076C82.1646 140.865 86.8295 144.561 90.4179 143.351C91.2422 143.039 91.9833 142.54 92.5832 141.893C93.1831 141.247 93.6255 140.469 93.8759 139.622C94.1368 140.08 94.3652 140.538 94.6588 140.996C97.7579 145.608 102.684 147.538 105.652 145.706C106.4 145.202 106.98 144.484 107.316 143.646C107.537 144.407 107.924 145.11 108.448 145.704C108.973 146.298 109.622 146.768 110.35 147.08C113.058 148.061 116.287 146.164 118.473 142.73C118.636 143.27 118.89 143.779 119.223 144.234C121.539 147.211 127.15 146.72 131.75 143.155C132.796 142.335 133.738 141.39 134.555 140.342C135.795 145.673 139.416 149.435 143.005 148.879C144.389 148.475 145.623 147.669 146.552 146.563C147.481 145.458 148.063 144.101 148.224 142.664C148.75 143.809 149.68 144.717 150.834 145.216C154.292 146.524 158.761 143.253 160.816 137.889C161.372 138.859 162.232 139.618 163.263 140.047C166.851 141.421 171.516 137.987 173.637 132.393C174.149 133.121 174.848 133.697 175.659 134.062C179.117 135.501 183.684 132.295 185.902 126.964C186.74 124.936 187.097 122.742 186.946 120.553C191.285 121.959 195.493 121.109 196.733 118.296C197.973 115.483 196.733 112.212 193.471 109.595V109.399C194.83 109.223 196.158 108.86 197.418 108.319C202.898 106.03 206.161 101.287 204.66 97.7216Z" fill="#ECE2AC"/>
<path d="M165.873 68.6435C166.069 68.2183 166.264 67.8257 166.427 67.3678C168.45 62.1016 167.308 56.77 163.883 55.4616C162.95 55.1748 161.96 55.1324 161.006 55.3386C160.052 55.5447 159.167 55.9925 158.435 56.6392C159.936 51.9617 158.924 47.4151 155.923 46.1722C155.185 45.9073 154.396 45.8139 153.616 45.8989C152.836 45.9839 152.086 46.2451 151.421 46.6628C150.267 43.999 148.161 41.8641 145.517 40.677C144.101 39.9818 142.58 39.5285 141.015 39.3359C141.236 38.3975 141.156 37.4131 140.787 36.5229C139.384 33.252 134.066 32.2053 128.88 34.3641C127.805 34.8219 126.786 35.4037 125.846 36.0977C125.576 35.1023 125.205 34.1376 124.737 33.2193C122.225 28.4437 117.69 25.8924 114.591 27.5279C114.591 27.3643 114.591 27.2335 114.591 27.0699C114.044 25.8789 113.064 24.9427 111.851 24.4532C111.474 23.7881 110.953 23.2164 110.326 22.7805C109.7 22.3445 108.983 22.0554 108.23 21.9346C107.237 21.9113 106.254 22.1424 105.375 22.606C104.496 23.0697 103.75 23.7504 103.206 24.584L102.13 24.9111C100.363 25.6791 98.7666 26.7909 97.432 28.1821C95.2463 23.3738 90.9076 20.5935 87.8412 21.9346C86.6438 22.6215 85.6875 23.6629 85.1035 24.916C84.5195 26.1691 84.3363 27.5727 84.579 28.9344C84.579 28.64 84.3506 28.3456 84.2201 28.0839C81.8061 23.1121 77.3043 20.6262 74.2052 22.0654C73.6641 22.355 73.1862 22.7501 72.7996 23.2276C72.4131 23.705 72.1256 24.2552 71.9543 24.8457C70.4771 24.368 68.9171 24.2027 67.373 24.3604C65.8288 24.518 64.3341 24.9951 62.9832 25.7616C60.8151 26.8001 58.975 28.4187 57.6659 30.439C56.8407 29.1422 55.6211 28.1463 54.1876 27.5984C52.7541 27.0506 51.1827 26.98 49.7061 27.397C46.7375 28.7381 45.7915 33.1866 47.3247 37.7986C44.0625 33.2847 39.0061 31.2567 36.0375 33.4155C33.0689 35.5744 33.1994 40.8078 36.2332 45.4526C35.0994 44.6749 33.7576 44.2587 32.3838 44.2587C31.0101 44.2587 29.6683 44.6749 28.5344 45.4526C25.7616 47.9385 26.6424 53.4009 30.4918 57.6859C30.6875 57.9148 30.9158 58.0784 31.1116 58.3073C25.8921 57.7513 21.325 59.8774 20.8683 63.2791C20.4768 65.994 22.7277 68.7089 26.2509 70.2135C24 72.6994 24.6524 77.6712 28.0125 81.7926C29.2089 83.2876 30.6962 84.5229 32.3838 85.4234C32.1047 86.2544 31.8974 87.108 31.764 87.9747C30.9811 93.5353 33.2646 98.4744 36.853 98.9977C37.0802 99.0304 37.3109 99.0304 37.5381 98.9977C37.9296 102.465 42.3662 104.853 47.6509 104.591C47.4552 108.058 51.3698 111.46 56.7198 112.343C57.8046 112.449 58.8972 112.449 59.982 112.343C61.2869 115.254 65.6256 117.119 70.5841 116.661C71.2197 116.597 71.8513 116.499 72.4762 116.366C73.357 119.637 78.1524 121.6 83.4372 120.619C84.4753 120.396 85.4909 120.079 86.471 119.67C86.3456 120.475 86.4069 121.298 86.6502 122.075C86.8935 122.852 87.3122 123.563 87.8738 124.151C90.4835 126.67 95.7357 125.394 99.5851 121.305L99.9439 120.88C102.233 122.647 105.086 123.519 107.969 123.333C110.524 123.39 113.037 122.672 115.178 121.273C117.234 125.623 120.92 128.24 124.019 127.226C127.118 126.212 128.586 121.927 127.673 117.151L128.097 117.904C131.033 122.254 135.698 124.249 138.503 122.352C139.244 121.772 139.82 121.009 140.175 120.136C140.53 119.264 140.651 118.314 140.526 117.38C140.908 117.722 141.35 117.988 141.83 118.165C145.093 119.343 149.105 116.268 150.899 111.264C151.129 110.623 151.315 109.967 151.454 109.301C154.105 109.134 156.637 108.139 158.696 106.455C160.773 104.9 162.34 102.759 163.198 100.306C166.656 99.4884 168.776 94.582 167.928 89.0541C167.668 87.2062 167.047 85.4277 166.101 83.8206C167.008 82.7032 167.724 81.4433 168.222 80.0917C170.244 75.0218 169.168 69.8864 165.873 68.6435Z" fill="#FCFBE6"/>
<path d="M106.566 91.7689C109.273 81.9561 98.0515 70.377 81.5448 65.7977C65.0381 61.2184 49.4448 65.4052 46.6719 75.1525C43.899 84.8999 55.1536 96.5117 71.6929 101.091C88.2323 105.67 103.858 101.516 106.566 91.7689Z" fill="white"/>
<path d="M4.00171 54.2839C14.4407 40.2516 53.1956 -3.05549 95.0496 1.29484C136.904 5.64518 205.018 30.9622 213.663 98.7359C219.829 147.178 204.105 124.053 174.517 109.236C144.929 94.4183 76.2267 61.251 31.8609 63.8678C-12.505 66.4845 4.00171 54.2839 4.00171 54.2839Z" fill="#E61300"/>
<path d="M209.324 122.711C206.258 122.711 200.516 119.081 193.894 114.894C188.011 111.042 181.935 107.494 175.691 104.263C115.177 73.8764 68.43 58.4703 36.8846 58.4703C35.123 58.4703 33.3614 58.4703 31.6324 58.6338C27.5547 58.8628 23.8032 58.9936 20.541 58.9936C5.04553 58.9936 3.54492 56.246 3.54492 56.2133C3.93858 55.2181 4.62025 54.3637 5.50224 53.7601L5.79584 53.5312L6.02419 53.2041C7.68791 51.078 45.6599 1 89.0797 1C90.9756 0.999328 92.8702 1.09759 94.7559 1.29439C105.586 2.4065 200.647 14.6725 211.086 96.4785C212.945 111.1 212.815 119.735 210.694 122.155C210.527 122.352 210.316 122.505 210.077 122.602C209.839 122.698 209.58 122.736 209.324 122.711Z" fill="#F4493A"/>
<path d="M95.0494 1.29484C53.1954 -3.05549 14.4405 40.2516 4.00152 54.2839C3.64299 54.5527 3.30496 54.8479 2.99023 55.1671C8.58231 54.9426 14.1522 54.3305 19.6601 53.3354C61.5793 45.8776 125.518 61.4146 155.433 74.5964C185.347 87.7783 209.455 88.1381 202.832 64.7836C179.997 22.098 128.846 4.82745 95.0494 1.29484Z" fill="#FF685A"/>
<g style="mix-blend-mode:color-dodge" opacity="0.3">
<g style="mix-blend-mode:color-dodge">
<path d="M82.1651 9.40633C85.8187 6.52791 89.766 3.81303 93.7132 1.19629C92.2779 1.19629 90.8751 1.19629 89.4398 1.19629C65.9658 17.4888 46.4807 38.9049 32.4492 63.8346H34.8306C46.9127 42.7667 62.9936 24.2758 82.1651 9.40633Z" fill="white"/>
</g>
<g style="mix-blend-mode:color-dodge">
<path d="M76.4222 69.6898C81.7725 62.1359 87.6945 55.006 94.136 48.3633C98.9709 43.283 104.136 38.5297 109.599 34.1348C120.097 26.2416 131.353 19.4153 143.199 13.7569C141.014 12.841 138.861 11.9906 136.675 11.2056C131.906 13.5888 127.306 16.2992 122.909 19.3175C116.956 22.9013 111.255 26.8903 105.847 31.2564C100.473 35.5996 95.4247 40.3335 90.7433 45.4195C84.385 52.1482 78.632 59.4271 73.5515 67.1712L72.6055 68.6758L76.357 69.6571L76.4222 69.6898Z" fill="white"/>
</g>
<g style="mix-blend-mode:color-dodge">
<path d="M58.4809 65.7318C67.4459 52.4145 77.8982 40.1673 89.6349 29.2282C95.9288 23.3084 102.633 17.8431 109.697 12.8735C113.416 10.4531 117.266 8.19611 121.18 6.07001C118.44 5.44853 115.569 4.79435 112.829 4.271C111.002 5.38311 109.143 6.46252 107.381 7.54193C100.129 12.4524 93.269 17.9204 86.862 23.8966C73.9556 35.908 62.8864 49.7622 54.0117 65.0122L58.4809 65.7318Z" fill="white"/>
</g>
<g style="mix-blend-mode:color-dodge">
<path d="M57.6327 8.78516C49.9608 12.5472 42.6919 17.0846 35.9391 22.3268C24.8959 34.7631 15.3584 48.4653 7.52539 63.148C9.03478 63.449 10.5594 63.6674 12.0925 63.8022L13.1364 61.9051C25.685 42.3952 40.6348 24.5481 57.6327 8.78516Z" fill="white"/>
</g>
<g style="mix-blend-mode:color-dodge">
<path d="M210.401 83.166C200.684 85.1184 191.364 88.7014 182.836 93.7638C177.212 97.235 171.857 101.128 166.818 105.408L168.71 106.324C180.715 97.231 195.689 92.3573 212.032 89.6097C211.576 87.4182 211.021 85.2921 210.401 83.166Z" fill="white"/>
</g>
<g style="mix-blend-mode:color-dodge">
<path d="M208.215 76.4279C206.882 72.8591 205.336 69.3746 203.582 65.9937C181.726 70.9655 162.087 80.3858 147.473 96.1844L149.854 97.2965C165.317 84.4744 185.869 78.8484 208.215 76.4279Z" fill="white"/>
</g>
<g style="mix-blend-mode:color-dodge">
<path d="M214.447 105.67C214.447 104.721 214.252 103.773 214.154 102.726C204.137 105.549 194.595 109.848 185.838 115.483L187.828 116.726C196.079 111.686 205.059 107.957 214.447 105.67Z" fill="white"/>
</g>
<g style="mix-blend-mode:color-dodge">
<path d="M109.599 56.606C125.317 42.1781 143.891 31.2334 164.111 24.4855C161.24 22.7192 158.336 21.2146 155.401 19.5137C132.973 26.8873 113.208 40.7211 98.5731 59.2882C95.0178 63.6759 91.842 68.3593 89.0801 73.2878L93.1252 74.5634C98.1249 68.1422 103.634 62.1368 109.599 56.606Z" fill="white"/>
</g>
<g style="mix-blend-mode:color-dodge">
<path d="M196.733 54.5454C195.33 52.5829 193.895 50.7184 192.394 48.8867C166.003 53.3352 142.287 64.2928 125.291 86.5024L130.282 88.5958C148.616 69.8861 171.582 59.5827 196.733 54.5454Z" fill="white"/>
</g>
<g style="mix-blend-mode:color-dodge">
<path d="M182.216 38.2557C180.813 36.9801 179.378 35.7044 177.91 34.4941C150.605 42.0173 126.106 56.6711 109.143 80.2872L111.883 81.3339C129.825 59.5168 154.748 45.5172 182.216 38.2557Z" fill="white"/>
</g>
</g>
<path d="M143.135 19.2194C143.82 14.771 129.499 8.8833 111.133 6.13572C92.7665 3.38813 77.369 4.63109 76.6839 9.07955C75.9988 13.528 91.5595 11.3692 109.926 14.1822C128.292 16.9952 142.45 23.6679 143.135 19.2194Z" fill="white"/>
<path d="M201.887 83.1335C205.345 80.255 200.777 69.1012 191.741 58.2417C182.705 47.3822 172.559 40.9057 169.102 43.7842C165.644 46.6626 181.4 49.9335 185.413 63.4097C192.557 86.7315 198.461 86.0446 201.887 83.1335Z" fill="white"/>
</svg>
