<svg width="43" height="32" viewBox="0 0 43 32" fill="none" xmlns="http://www.w3.org/2000/svg">
<g clip-path="url(#clip0_1203_15694)">
<g style="mix-blend-mode:multiply">
<path d="M39.2797 28.6901C39.2314 28.6036 39.1643 28.5292 39.0835 28.4725C39.3843 28.2483 39.417 27.8131 39.0835 27.3383C38.93 27.112 38.7373 26.9154 38.5146 26.7581C38.7129 26.6323 38.8681 26.4481 38.9593 26.2306C39.0083 26.0988 39.0303 25.9583 39.0237 25.8177C39.017 25.677 38.9821 25.5393 38.9209 25.4127C38.8597 25.2862 38.7735 25.1736 38.6677 25.0818C38.5619 24.99 38.4386 24.9209 38.3054 24.8788C38.8154 24.6085 38.9593 24.2194 38.6585 23.9359C38.3411 23.7446 37.9888 23.6198 37.6226 23.5688C37.2563 23.5178 36.8837 23.5417 36.5268 23.6392L36.4549 23.5666C36.4975 23.5259 36.5368 23.4818 36.5726 23.4348C36.6709 23.3099 36.7357 23.1617 36.7608 23.0043C36.786 22.8469 36.7705 22.6857 36.716 22.536C36.6615 22.3864 36.5698 22.2534 36.4496 22.1498C36.3295 22.0462 36.1849 21.9755 36.0298 21.9445C35.8857 21.8985 35.7362 21.8719 35.5852 21.8654C35.1478 21.3476 34.5478 20.9963 33.8851 20.8697C33.496 20.7609 33.0975 20.6903 32.695 20.6587C32.6813 20.5861 32.6593 20.5153 32.6296 20.4477C32.4694 20.1046 32.2188 19.8125 31.9051 19.6032C31.5915 19.3938 31.2268 19.2754 30.851 19.2608C30.788 19.254 30.7244 19.254 30.6614 19.2608C30.0319 18.854 29.2884 18.6643 28.5428 18.7201C28.2881 18.7185 28.034 18.7428 27.7842 18.7927C27.7842 18.7927 27.7842 18.7465 27.7842 18.7201C27.7781 18.3608 27.6417 18.0161 27.4008 17.7512C27.1598 17.4864 26.831 17.3197 26.4765 17.2827C26.2946 17.2528 26.1091 17.2528 25.9272 17.2827C25.2314 16.8617 24.4201 16.6768 23.6124 16.7552C23.2574 16.7627 22.9053 16.8205 22.5662 16.9266C22.3695 16.6021 22.0953 16.3324 21.7686 16.1424C21.4419 15.9523 21.0731 15.8479 20.696 15.8386C20.5037 15.8235 20.3129 15.8835 20.1632 16.0063C20.0135 16.129 19.9163 16.305 19.8918 16.498C19.8761 16.4587 19.8564 16.4211 19.8329 16.3859C19.6182 16.0595 19.3267 15.7917 18.9844 15.6065C18.6421 15.4212 18.2597 15.3243 17.8712 15.3243C17.7031 15.3342 17.5416 15.3938 17.407 15.4958C16.7856 15.2421 16.1118 15.147 15.4453 15.2188C15.0986 15.2437 14.7584 15.3261 14.4383 15.4628C14.2224 15.1724 13.9433 14.9358 13.6224 14.7712C13.3016 14.6066 12.9477 14.5183 12.5878 14.5133C12.4442 14.477 12.2933 14.4846 12.154 14.5352C12.0148 14.5857 11.8937 14.6769 11.806 14.7971C11.7184 14.9173 11.6682 15.0611 11.6618 15.2102C11.6555 15.3593 11.6933 15.5069 11.7704 15.6342C11.4873 15.33 11.1415 15.0921 10.7574 14.9372C10.3733 14.7822 9.96021 14.7141 9.54717 14.7375C9.44 14.7442 9.33646 14.7791 9.24684 14.8387C9.15722 14.8984 9.08466 14.9807 9.03637 15.0774C8.98809 15.1741 8.96577 15.2818 8.97164 15.39C8.97751 15.4981 9.01136 15.6028 9.06983 15.6936C8.75515 15.4116 8.38553 15.1992 7.98465 15.0697C7.58378 14.9403 7.1605 14.8967 6.74197 14.9419C6.16 15.1133 6.18616 15.7002 6.74197 16.3002L6.53926 16.2211C5.41456 15.9178 4.35526 15.9837 4.16563 16.3661C4.0937 16.5178 4.16563 16.6958 4.35526 16.8805C4.05858 16.7793 3.74113 16.7566 3.43327 16.8145C2.77938 16.9662 2.81861 17.586 3.43327 18.2058C3.07882 18.3224 2.78481 18.5762 2.6159 18.9114C2.52662 19.1003 2.50129 19.3136 2.54382 19.5185C2.58634 19.7234 2.69436 19.9085 2.8513 20.0455C2.36088 20.118 2.03394 20.2961 2.0274 20.5401C2.02086 20.784 2.59629 21.2324 3.40711 21.45C3.05401 21.4962 2.79245 21.5951 2.70745 21.7665C2.51128 22.1621 3.28287 22.7358 4.43372 23.0853L4.64951 23.1314C4.47296 23.2238 4.3618 23.3424 4.3618 23.4809C4.3618 23.9227 5.32956 24.4041 6.53926 24.5623C6.29078 24.6744 6.15346 24.8195 6.17962 24.9975C6.24501 25.4261 7.23893 25.8481 8.39632 25.9404C8.57055 25.9501 8.74519 25.9501 8.91943 25.9404C8.55979 26.2437 8.50748 26.5998 8.8475 26.8702C9.48406 27.217 10.2283 27.3044 10.9269 27.1141C11.4316 27.6302 12.1061 27.9421 12.8232 27.9911C13.2069 28.062 13.5976 28.0864 13.9871 28.0636C13.9972 28.1149 14.0103 28.1656 14.0263 28.2153C14.1833 28.5775 14.4384 28.8878 14.7622 29.1105C15.086 29.3333 15.4655 29.4595 15.8572 29.4747C15.9948 29.4845 16.1329 29.4649 16.2625 29.4171C16.3921 29.3694 16.5102 29.2947 16.6092 29.1978C16.6485 29.2602 16.6922 29.3197 16.74 29.3758C16.9929 29.678 17.3114 29.9173 17.671 30.0751C18.0305 30.2329 18.4212 30.305 18.8128 30.2858C18.9475 30.2699 19.0747 30.2149 19.179 30.1275C19.2862 30.3518 19.4764 30.5246 19.7087 30.6089C19.9868 30.7032 20.2818 30.7367 20.5738 30.7072C20.8658 30.6776 21.1482 30.5857 21.4022 30.4374C21.4243 30.507 21.4624 30.5703 21.5134 30.6221C21.9123 31.0309 23.0304 31.1825 24.0113 30.9649C24.2183 30.9179 24.4198 30.8494 24.6129 30.7605C24.7124 31.0943 24.9089 31.3902 25.177 31.61C25.4451 31.8298 25.7725 31.9635 26.1168 31.9936C26.333 32.0271 26.5542 32 26.756 31.9151C26.9579 31.8301 27.1327 31.6908 27.2611 31.5122C27.3746 31.6832 27.5397 31.8127 27.7319 31.8815C28.0887 32.0072 28.4725 32.0337 28.843 31.9583C29.2134 31.8829 29.557 31.7083 29.8375 31.4529C29.9509 31.5995 30.1026 31.7114 30.2756 31.776C30.6469 31.9072 31.0465 31.9347 31.432 31.8558C31.8176 31.7769 32.1749 31.5944 32.4661 31.3276C32.5688 31.4368 32.6937 31.5223 32.8323 31.5782C33.1943 31.7095 33.5841 31.7427 33.9628 31.6744C34.3414 31.6061 34.6957 31.4388 34.9901 31.1891C35.1861 31.023 35.3103 30.7865 35.3367 30.5298C36.1671 30.8397 37.0041 30.9056 37.3376 30.6484C37.6711 30.3913 37.403 29.9891 36.808 29.5736C37.0757 29.5936 37.3445 29.5936 37.6123 29.5736C38.7696 29.5209 39.502 29.1253 39.2797 28.6901Z" fill="#B8B5AA"/>
</g>
<path d="M40.0577 19.4389C40.0027 19.3175 39.9224 19.2096 39.8223 19.1223C39.9503 18.7897 40.0009 18.4318 39.9703 18.0763C39.9397 17.7208 39.8287 17.3771 39.6458 17.0717C39.4834 16.7488 39.2615 16.4601 38.9919 16.2211C39.1757 15.88 39.2912 15.5059 39.3319 15.1199C39.4561 14.0583 39.0507 13.1417 38.4164 12.9175C38.8742 12.2581 38.9723 11.5262 38.5995 11.1042C38.2268 10.6822 37.2394 10.6954 36.4417 11.2757L36.3501 11.2097C36.3501 11.1174 36.4155 11.0251 36.4417 10.9262C36.7556 9.75247 36.3959 8.63152 35.6439 8.42711C35.4931 8.3941 35.337 8.3941 35.1862 8.42711C35.0009 8.08655 34.7373 7.7957 34.4176 7.57888C34.098 7.36207 33.7315 7.22559 33.3488 7.18087C32.9454 7.09774 32.5294 7.09774 32.126 7.18087C32.0994 7.05556 32.0644 6.93219 32.0214 6.81161C31.629 5.73681 30.7332 5.04446 30.0793 5.27524C30.0167 5.298 29.9573 5.32904 29.9028 5.36756C29.5996 5.11939 29.233 4.9629 28.8453 4.91622C28.4576 4.86954 28.0648 4.93458 27.7122 5.1038C27.4508 5.19729 27.2042 5.32832 26.9799 5.49284C26.9799 5.44009 26.9799 5.39393 26.9799 5.34778C26.8818 4.1411 26.156 3.18499 25.3909 3.23115C25.1985 3.24634 25.0145 3.31733 24.8612 3.43556C24.5223 3.18121 24.1189 3.02887 23.6976 2.9962C23.2764 2.96352 22.8546 3.05184 22.4811 3.25093C22.1111 3.40482 21.7737 3.62863 21.4872 3.91032C21.0229 2.88167 20.1271 2.28823 19.4536 2.59154C19.2059 2.74376 19.0105 2.96883 18.8936 3.23644C18.7767 3.50406 18.7439 3.80137 18.7997 4.08835L18.7212 3.90372C18.1915 2.86849 17.2434 2.30801 16.583 2.6377C16.393 2.73788 16.243 2.90083 16.1579 3.09927C15.8313 2.97745 15.4815 2.93196 15.1349 2.96623C14.7883 3.00049 14.454 3.11362 14.157 3.29709C13.7919 3.47154 13.4685 3.72345 13.2089 4.0356C12.6858 3.14543 11.8488 2.66408 11.2472 2.95421C10.6456 3.24434 10.4233 4.1411 10.711 5.09721C10.0113 4.17407 8.98472 3.77844 8.37006 4.22023C7.87965 4.56311 7.7881 5.3214 8.06927 6.10607C7.19306 5.27524 6.15337 5.03127 5.59756 5.539C5.04175 6.04673 5.18561 7.08196 5.86565 7.96554L5.61064 7.91279C4.44671 7.74135 3.41356 8.20951 3.30239 8.96781C3.28568 9.12266 3.30213 9.27932 3.35064 9.42721C3.39915 9.57509 3.47858 9.71075 3.58357 9.82501C3.42528 9.78827 3.26101 9.78633 3.10191 9.81932C2.94282 9.85232 2.79264 9.91948 2.66158 10.0162C2.07961 10.4976 2.19732 11.6119 2.91006 12.5285C2.52447 12.955 2.27996 13.492 2.21039 14.0649C2.14437 14.4072 2.14921 14.7597 2.2246 15.1001C2.29999 15.4405 2.4443 15.7615 2.6485 16.043C2.4438 16.1544 2.27226 16.3188 2.15157 16.5194C2.03088 16.7199 1.96541 16.9492 1.96191 17.1838C2.01423 17.7904 2.61581 18.2454 3.47895 18.3706C3.31511 18.4438 3.17059 18.5546 3.05701 18.6944C2.94344 18.8341 2.86399 18.9988 2.82505 19.1751C2.70081 19.9466 3.56395 20.7247 4.7475 20.9159C4.81943 20.9159 4.89789 20.9159 4.96982 20.9159C4.81279 21.1234 4.734 21.3805 4.7475 21.6412C4.82597 22.4325 5.87219 22.96 7.08843 22.8611C6.98111 22.9816 6.90098 23.1243 6.85356 23.2791C6.80615 23.4339 6.79259 23.5972 6.8138 23.7578C6.95766 24.5095 8.01042 24.9447 9.16128 24.7205C9.33937 24.6871 9.51436 24.6385 9.68439 24.5755C9.52468 24.8372 9.45074 25.1431 9.47304 25.4496C9.49534 25.7561 9.61275 26.0478 9.80863 26.2833C10.2794 26.7317 11.1491 26.5998 11.9011 26.0327C12.1166 26.3652 12.42 26.6304 12.777 26.7982C13.1341 26.966 13.5305 27.0297 13.9216 26.9822C14.308 26.9755 14.6887 26.8879 15.0398 26.7251C15.0398 26.8108 15.079 26.8965 15.1052 26.9822C15.4779 28.1427 16.4129 28.8879 17.1322 28.6439C17.296 28.5804 17.4434 28.4804 17.5634 28.3514C17.6834 28.2223 17.773 28.0676 17.8254 27.8988C17.8713 27.9925 17.9238 28.0828 17.9823 28.1691C18.6035 29.0989 19.5909 29.5275 20.1859 29.1186C20.3358 29.017 20.452 28.8722 20.5194 28.7032C20.5666 28.8514 20.6456 28.9872 20.7507 29.1012C20.8558 29.2151 20.9844 29.3044 21.1275 29.3626C21.6637 29.5604 22.3176 29.1846 22.7557 28.4922C22.7858 28.6002 22.8369 28.7011 22.9061 28.7889C23.3704 29.3956 24.4951 29.2967 25.4171 28.5714C25.6263 28.4078 25.8131 28.2171 25.9729 28.0043C26.2279 29.0857 26.9472 29.8374 27.673 29.7253C27.9572 29.6583 28.2145 29.5058 28.4107 29.2879C28.6069 29.07 28.7327 28.7971 28.7715 28.5054C28.8775 28.738 29.0666 28.9217 29.3012 29.0197C29.9943 29.2901 30.8901 28.6241 31.2956 27.5427C31.4097 27.737 31.5844 27.8877 31.7925 27.9713C32.5118 28.2482 33.4403 27.5625 33.8654 26.4349C33.9671 26.5811 34.1076 26.6954 34.2708 26.7646C34.9574 27.0548 35.8793 26.4152 36.324 25.3338C36.495 24.9304 36.5711 24.4925 36.5463 24.0546C37.416 24.3381 38.253 24.1732 38.508 23.6062C38.763 23.0391 38.4491 22.3665 37.7952 21.8522V21.8126C38.0653 21.7654 38.3287 21.6857 38.5799 21.5753C39.7046 21.1005 40.352 20.1576 40.0577 19.4389Z" fill="#ECE2AC"/>
<path d="M32.2827 13.577H32.2435C32.288 13.4961 32.3273 13.4124 32.3612 13.3264C32.76 12.2582 32.5312 11.1834 31.8511 10.9196C31.663 10.8631 31.4637 10.8552 31.2718 10.8967C31.0798 10.9382 30.9013 11.0277 30.7526 11.157C31.0599 10.2141 30.8572 9.29755 30.2491 9.04698C30.1018 8.99558 29.9451 8.97778 29.7902 8.99489C29.6352 9.01199 29.486 9.06357 29.3533 9.14589C29.1261 8.5997 28.7037 8.15958 28.1697 7.91284C27.8864 7.77151 27.5812 7.68008 27.2673 7.64249C27.3083 7.45308 27.2923 7.25566 27.2216 7.07542C26.9404 6.41603 25.8746 6.19843 24.8349 6.64022C24.6168 6.73137 24.4104 6.84871 24.2202 6.9897C24.1702 6.78774 24.0955 6.59282 23.9979 6.40944C23.4944 5.47311 22.5855 4.95219 21.9708 5.27529C21.9708 5.27529 21.9708 5.27529 21.9381 5.27529C21.9411 5.2468 21.9411 5.21806 21.9381 5.18957C21.8302 4.94826 21.6331 4.75899 21.3888 4.66206C21.3119 4.52918 21.2071 4.41487 21.0817 4.32717C20.9563 4.23946 20.8134 4.18047 20.663 4.15434C20.4542 4.14034 20.2456 4.18539 20.0608 4.2844C19.876 4.38342 19.7222 4.53248 19.6168 4.71481C19.5657 4.72944 19.5155 4.74705 19.4664 4.76757C19.1127 4.91168 18.7905 5.12452 18.5183 5.39398C18.0801 4.42469 17.2105 3.85761 16.6024 4.12796C16.3623 4.26643 16.1707 4.47637 16.0536 4.72899C15.9365 4.98161 15.8998 5.26455 15.9485 5.53905C15.9485 5.4863 15.9027 5.42695 15.8765 5.36761C15.3861 4.39831 14.4903 3.8708 13.8691 4.18731C13.6511 4.30834 13.4874 4.50887 13.4114 4.74778C13.1128 4.65097 12.7976 4.61797 12.4857 4.65089C12.1739 4.68382 11.8722 4.78194 11.6001 4.93901C11.1701 5.15057 10.8076 5.47954 10.5538 5.88852C10.39 5.63565 10.152 5.44064 9.87305 5.33071C9.59406 5.22078 9.28801 5.20141 8.99758 5.27529C8.40253 5.54564 8.2129 6.44241 8.5137 7.37214C7.8598 6.46219 6.85281 6.05337 6.25123 6.48856C5.64964 6.92376 5.68888 7.98537 6.297 8.9217C6.06972 8.76492 5.80077 8.68104 5.5254 8.68104C5.25004 8.68104 4.98109 8.76492 4.75381 8.9217C4.198 9.42283 4.37455 10.5306 5.14615 11.3944L5.27039 11.5131C4.22416 11.401 3.30871 11.8362 3.21716 12.5219C3.13216 13.0692 3.58988 13.6165 4.29609 13.9132C3.83836 14.4144 3.97568 15.4232 4.64265 16.2475C4.88289 16.551 5.18362 16.8004 5.5254 16.9794C5.47022 17.1472 5.42867 17.3192 5.40117 17.4937C5.24423 18.6213 5.69542 19.6103 6.42124 19.7158C6.46695 19.7191 6.51284 19.7191 6.55856 19.7158C6.63702 20.4082 7.52632 20.8896 8.58562 20.8368C8.54639 21.5358 9.33106 22.2281 10.4034 22.3995C10.6207 22.424 10.84 22.424 11.0573 22.3995C11.3189 22.993 12.1886 23.3688 13.1825 23.2699C13.3099 23.2571 13.4365 23.2373 13.5617 23.2106C13.7318 23.87 14.6995 24.2722 15.7588 24.0678C15.9656 24.0291 16.1674 23.9672 16.3604 23.8832C16.3382 24.0453 16.3518 24.2105 16.4005 24.3667C16.4491 24.5229 16.5314 24.6663 16.6416 24.7865C17.1712 25.2877 18.224 25.0305 18.9956 24.2129L19.0675 24.1205C19.5272 24.4759 20.0978 24.6536 20.6761 24.6217C21.1934 24.6212 21.698 24.46 22.1212 24.1601C22.5266 25.0437 23.2721 25.5646 23.8933 25.3668C24.5145 25.169 24.8087 24.292 24.6256 23.3359C24.6515 23.3856 24.6799 23.4341 24.7106 23.4809C25.2991 24.3645 26.2342 24.7997 26.7965 24.3843C26.943 24.2657 27.0571 24.1115 27.128 23.9361C27.199 23.7608 27.2244 23.5701 27.202 23.382C27.2778 23.4484 27.364 23.5019 27.457 23.5403C28.1109 23.7711 28.9152 23.1512 29.2813 22.149C29.3382 22.0228 29.3863 21.8928 29.4252 21.7599C29.947 21.7142 30.4451 21.5193 30.8609 21.1981C31.2767 20.8769 31.593 20.4428 31.7727 19.9466C32.4723 19.7818 32.8974 18.7861 32.7274 17.6717C32.6713 17.3023 32.5471 16.9467 32.3612 16.6233C32.5398 16.3935 32.6831 16.1379 32.7862 15.865C33.1589 14.8628 32.9366 13.8473 32.2827 13.577Z" fill="#FCFBE6"/>
<path d="M20.3945 18.239C20.9307 16.2609 18.6878 13.9332 15.3791 13.0101C12.0704 12.087 8.94481 12.9244 8.40208 14.8893C7.85935 16.8543 10.1087 19.1951 13.4174 20.1249C16.7261 21.0546 19.8517 20.204 20.3945 18.239Z" fill="white"/>
<path d="M0.150263 10.2734C0.980707 8.80952 5.17216 -1.27909 13.6793 0.132C22.1865 1.54309 29.6343 2.87505 36.4282 7.58306C40.8551 10.6558 46.3282 17.3354 40.4039 21.2719C34.4796 25.2084 31.9033 22.1489 27.0776 18.9575C22.2518 15.766 7.09461 9.76563 3.04701 12.1262C-1.00059 14.4868 0.150263 10.2734 0.150263 10.2734Z" fill="#DE4900"/>
<path d="M35.3105 22.0762C33.1919 22.0762 31.3872 20.83 29.1639 19.2475C28.5885 18.8387 27.9804 18.4166 27.3396 17.988C23.4162 15.3505 11.8096 10.537 5.68266 10.537C4.67299 10.4844 3.66676 10.6932 2.75976 11.1436C2.24912 11.5029 1.65837 11.7294 1.04002 11.803C0.969184 11.8131 0.896963 11.8044 0.830462 11.7778C0.763962 11.7513 0.705475 11.7077 0.660759 11.6513C0.470815 11.0986 0.468515 10.4978 0.65422 9.94354C0.726149 9.81166 0.824233 9.62703 0.935394 9.40284C2.09932 7.07521 5.66958 0 12.0712 0C12.5814 0.00320181 13.0907 0.0450809 13.5948 0.125283C21.6507 1.44406 29.2882 2.76283 36.1344 7.49062C39.2339 9.62703 42.5034 13.346 42.5034 16.4846C42.5034 18.0012 41.6925 19.287 40.1428 20.3223C38.325 21.496 36.7622 22.0762 35.3105 22.0762Z" fill="#FF6A21"/>
<path d="M36.428 7.58294C29.634 2.87493 22.1862 1.54956 13.679 0.13188C8.79445 -0.659384 5.33536 2.30126 3.11866 5.27509C2.36669 6.72574 1.88281 7.8401 1.75857 8.15661C1.75857 8.15661 1.30738 11.3085 4.02104 9.22481C6.73469 7.14115 18.2497 10.0425 22.0162 11.8624C25.7826 13.6823 34.8979 17.7375 38.8147 14.3351C39.3211 13.9594 39.7235 13.4591 39.9833 12.8818C40.2432 12.3046 40.3519 11.6698 40.299 11.0381C39.1553 9.72947 37.855 8.56889 36.428 7.58294Z" fill="#FF9447"/>
<g style="mix-blend-mode:multiply">
<g style="mix-blend-mode:multiply">
<path d="M6.12699 6.15208C6.12699 6.15208 6.16622 6.15208 6.1793 6.15208C8.12645 4.75721 9.9649 3.21414 11.6785 1.53638C12.1232 1.07481 12.6463 0.593454 13.1694 0.0725387C12.5346 0.00707044 11.8948 0.00707044 11.26 0.0725387L10.7565 0.593454C9.07604 2.2617 7.19283 3.78488 5.81966 5.76304C5.80199 5.78747 5.78941 5.81525 5.78266 5.84472C5.77592 5.87418 5.77516 5.90471 5.78042 5.93448C5.75566 5.9551 5.73746 5.98262 5.72811 6.01361C5.36193 7.85989 5.30308 9.76551 5.07422 11.6448C5.43141 11.6248 5.78941 11.6248 6.1466 11.6448C6.3803 9.82101 6.3737 7.97409 6.12699 6.15208Z" fill="#FF9447"/>
</g>
<g style="mix-blend-mode:multiply">
<path d="M2.75984 12.2843C3.044 10.9671 3.18867 9.62326 3.19141 8.27527C3.19088 8.24831 3.18255 8.22209 3.16745 8.19983C3.15235 8.17758 3.13113 8.16025 3.1064 8.14998C4.11849 5.85929 5.36317 3.68048 6.82051 1.64844C5.67749 2.42611 4.65128 3.36545 3.77337 4.43764C3.27961 5.60772 2.93042 6.8346 2.73368 8.09064C2.72635 8.13921 2.73605 8.18884 2.76112 8.23097C2.78618 8.27311 2.82505 8.30509 2.871 8.32142C2.61598 9.79845 2.17787 11.2623 1.77246 12.7195C2.11409 12.6052 2.4446 12.4595 2.75984 12.2843Z" fill="#FF9447"/>
</g>
<g style="mix-blend-mode:multiply">
<path d="M29.2164 20.441C29.1508 16.8263 28.6858 13.2303 27.8302 9.71942C30.0882 8.96128 32.2926 8.04923 34.428 6.98957L35.0818 6.69284C34.696 6.45546 34.3037 6.22468 33.9114 6.00049C33.676 6.11918 33.4406 6.24446 33.1921 6.35656C31.2696 7.25332 29.1707 7.91271 27.464 9.23148C27.4158 9.23673 27.3699 9.25475 27.3308 9.2837C27.2918 9.31265 27.261 9.35151 27.2417 9.39633L27.1763 9.44248C27.1461 9.47294 27.1244 9.5109 27.1135 9.55252C27.1026 9.59414 27.1028 9.63794 27.1141 9.67946C27.1254 9.72098 27.1474 9.75875 27.1778 9.78893C27.2083 9.81911 27.2461 9.84063 27.2874 9.8513C27.9765 13.1002 28.2729 16.4213 28.1702 19.7421L29.2164 20.441Z" fill="#FF9447"/>
</g>
<g style="mix-blend-mode:multiply">
<path d="M42.9869 17.256C43.0119 16.8392 42.9878 16.4208 42.915 16.0098L41.0383 16.4845C39.5605 16.8472 38.0042 16.9923 36.6115 17.6384C36.5682 17.6591 36.5308 17.6903 36.5025 17.7292C36.4743 17.7681 36.4561 17.8135 36.4496 17.8613C36.4431 17.9091 36.4485 17.9577 36.4653 18.0029C36.4822 18.048 36.5099 18.0882 36.5461 18.1198C36.0753 19.788 35.6568 21.4695 35.2383 23.1509C35.677 23.155 36.1151 23.1152 36.5461 23.0322C36.8046 21.4546 36.9271 19.8573 36.9122 18.2583C38.4094 18.2436 39.8988 18.0398 41.3456 17.6516C41.908 17.5329 42.4551 17.4011 42.9869 17.256Z" fill="#FF9447"/>
</g>
<g style="mix-blend-mode:multiply">
<path d="M31.2495 4.65546C30.8048 4.45105 30.3602 4.25982 29.9417 4.0752C29.3859 4.40489 28.8301 4.73458 28.2612 5.01152C26.6788 5.79619 24.6909 6.44239 23.5139 7.81391C23.3439 7.54357 22.8077 7.64247 22.86 8.01173C23.2388 10.9427 23.3831 13.8997 23.2916 16.8541L24.3117 17.3618C24.4303 14.2513 24.1712 11.1379 23.5401 8.09086C25.1617 7.84029 26.7376 6.95012 28.2154 6.25776C29.2687 5.80867 30.2835 5.27276 31.2495 4.65546Z" fill="#FF9447"/>
</g>
<g style="mix-blend-mode:multiply">
<path d="M10.7107 12.3043C11.0693 10.0356 10.8024 7.71117 9.93911 5.58516C11.6392 5.48625 13.0843 3.38281 14.1894 2.28823C14.8106 1.68819 15.4972 1.12112 16.2492 0.534262L14.4902 0.270508L14.3071 0.441948C12.6005 1.97832 10.9069 3.62678 9.31791 5.27525C9.2949 5.29789 9.27821 5.32625 9.26952 5.35746C9.26082 5.38867 9.26043 5.42164 9.26839 5.45305C9.27634 5.48447 9.29236 5.51321 9.31482 5.5364C9.33729 5.55959 9.36542 5.57641 9.39638 5.58516H9.6187C10.1266 7.7273 10.2221 9.94784 9.89987 12.1263L10.7107 12.3043Z" fill="#FF9447"/>
</g>
<g style="mix-blend-mode:multiply">
<path d="M18.8913 14.9549C19.4079 12.1723 19.8983 8.84244 18.5316 6.56096C20.2318 6.09939 21.8011 4.87953 23.2135 3.92342C23.8674 3.49482 24.5213 3.02666 25.2667 2.51893C24.7567 2.37386 24.2401 2.23539 23.717 2.10352C23.3639 2.40683 23.0108 2.69696 22.6577 2.96072C21.1864 4.03552 19.4667 4.93888 18.0805 6.13236C18.0047 6.13336 17.9319 6.16194 17.8754 6.21284C17.8189 6.26374 17.7826 6.33352 17.7731 6.40931L17.7077 6.46206C17.6031 6.56097 17.7077 6.68625 17.7993 6.71262C18.1745 9.3165 18.214 11.9584 17.917 14.5725L18.8913 14.9549Z" fill="#FF9447"/>
</g>
<g style="mix-blend-mode:multiply">
<path d="M32.6035 12.5285C33.8132 12.3109 34.9902 11.9284 36.1933 11.6581C37.4647 11.4257 38.7155 11.0905 39.9336 10.6558C39.6524 10.3459 39.3582 10.0426 39.0574 9.75244C38.1942 9.92388 37.3376 10.1547 36.481 10.3459C34.8725 10.7086 33.1331 11.0844 31.7992 12.1064C31.6226 12.2383 31.6226 12.5878 31.8515 12.6406C31.9671 15.7535 31.8732 18.8707 31.5703 21.9709C31.976 22.2145 32.3952 22.4347 32.8258 22.6302C33.3239 19.2749 33.2487 15.8583 32.6035 12.5285Z" fill="#FF9447"/>
</g>
<g style="mix-blend-mode:multiply">
<path d="M15.1711 13.5901C15.4522 11.3613 15.7596 7.82703 14.1902 5.94778C15.923 5.34114 17.4597 4.07512 18.9179 3.00692C19.5718 2.51897 20.3107 2.01784 20.9842 1.46395L19.6175 1.18701C19.1925 1.55627 18.7675 1.93212 18.3425 2.2684C16.9039 3.41574 15.2038 4.35206 13.9091 5.67084C13.8764 5.67084 13.8502 5.5983 13.8175 5.57193C13.8038 5.55623 13.7853 5.54568 13.7648 5.54201C13.7444 5.53834 13.7234 5.54176 13.7052 5.55172C13.6869 5.56168 13.6726 5.57758 13.6645 5.59682C13.6564 5.61606 13.655 5.63751 13.6606 5.65765C14.3766 8.15692 14.6423 10.7654 14.4453 13.3593L15.1711 13.5901Z" fill="#FF9447"/>
</g>
</g>
<path d="M28.274 4.77424C28.4179 3.89726 24.3507 2.47958 19.2045 1.6026C14.0584 0.725612 9.75576 0.719018 9.60537 1.6026C9.45497 2.48617 13.7837 2.30154 18.9626 3.18512C24.1414 4.0687 28.1171 5.64463 28.274 4.77424Z" fill="white"/>
<path d="M41.1947 14.4143C41.7375 13.689 40.3381 11.7108 38.0757 9.98983C35.8132 8.26883 33.5442 7.47757 33.0015 8.20289C32.4587 8.92822 35.6759 8.86228 37.0948 11.3086C39.5208 15.5485 40.6389 15.166 41.1947 14.4143Z" fill="white"/>
</g>
<defs>
<clipPath id="clip0_1203_15694">
<rect width="43" height="32" fill="white"/>
</clipPath>
</defs>
</svg>
