<svg width="42" height="32" viewBox="0 0 42 32" fill="none" xmlns="http://www.w3.org/2000/svg">
<g clip-path="url(#clip0_1203_16192)">
<g style="mix-blend-mode:multiply">
<path d="M33.0415 28.0267C33.171 25.5414 28.6713 23.2083 22.9692 22.8743C17.2672 22.5403 12.5502 24.2938 12.4207 26.8037C12.2912 29.3136 16.7955 31.6172 22.4929 31.9561C28.1903 32.295 32.9074 30.5366 33.0415 28.0267Z" fill="#B8B5AA"/>
</g>
<path d="M12.8652 26.4643C12.8652 28.2326 16.5094 29.6619 20.9998 29.6619C25.4902 29.6619 29.1343 28.2326 29.1343 26.4643C29.1343 24.6961 25.4902 18.0112 20.9998 18.0112C16.5094 18.0112 12.8652 24.6961 12.8652 26.4643Z" fill="#9C5723"/>
<path d="M42 15.9532C42 13.0061 32.5983 10.6387 21 10.6387C9.40167 10.6387 0 13.016 0 15.9532C0 18.8904 9.40167 28.2866 21 28.2866C32.5983 28.2866 42 18.8855 42 15.9532Z" fill="#B4703D"/>
<path d="M21 25.6543C32.598 25.6543 42 21.3112 42 15.9536C42 10.5961 32.598 6.25293 21 6.25293C9.40202 6.25293 0 10.5961 0 15.9536C0 21.3112 9.40202 25.6543 21 25.6543Z" fill="#E6BE8A"/>
<path d="M21.0006 24.0972C10.3225 24.0972 1.30469 20.2267 1.30469 15.6392C1.30469 11.0516 10.3225 7.18115 21.0006 7.18115C31.6786 7.18115 40.6964 11.0565 40.6964 15.6392C40.6964 20.2218 31.6786 24.0972 21.0006 24.0972Z" fill="#B4703D"/>
<path d="M17.6511 11.4005C10.1732 10.369 3.51391 13.5518 3.07458 18.3457C3.05847 18.5844 3.05847 18.824 3.07458 19.0628C6.20539 22.0098 13.1607 24.0973 21.0178 24.0973C24.1915 24.1093 27.3567 23.7502 30.4564 23.0266C30.5342 22.7376 30.5868 22.4416 30.6137 22.1424C31.0345 17.3486 25.1105 12.427 17.6511 11.4005Z" fill="#9C5723"/>
<g style="mix-blend-mode:multiply">
<path d="M24.3524 11.4C45.2923 7.85867 25.1062 27.8986 38.9428 19.0624C35.812 22.0094 28.8567 24.0969 20.9996 24.0969C17.8259 24.1089 14.6606 23.7498 11.5609 23.0261C11.4855 22.7366 11.4329 22.4408 11.4037 22.142C10.9644 17.3482 16.9208 12.6525 24.3524 11.4Z" fill="#B4703D"/>
</g>
<path d="M3.10264 20.0791C2.94078 20.7225 5.00795 22.1027 7.72717 23.1539C10.4464 24.205 12.754 24.5586 12.9113 23.8955C13.0685 23.2324 10.5574 23.4584 7.82429 22.422C5.09119 21.3856 3.2645 19.4357 3.10264 20.0791Z" fill="white"/>
<path d="M26.8508 3.55109C30.088 0.481248 29.5469 0.559836 29.2926 0.250396C29.0382 -0.0590433 29.1724 -0.628805 25.9213 2.45577C22.6703 5.54034 20.2424 8.25654 20.5014 8.56598C20.7603 8.87542 23.5859 6.62584 26.8508 3.55109Z" fill="#FFC554"/>
<path d="M26.401 3.01588C29.6381 -0.0539585 29.2358 0.186717 29.1479 0.0688352C29.0601 -0.0490466 29.3329 -0.422339 26.0819 2.62785C22.8308 5.67804 20.2688 8.29109 20.3475 8.39424C20.4261 8.49739 23.1499 6.09063 26.401 3.01588Z" fill="white"/>
<path d="M12.6072 15.9975C15.8443 12.9228 15.3819 13.1045 15.2432 12.9277C15.1044 12.7509 15.3172 12.2793 12.0661 15.3492C8.81506 18.419 6.30394 21.0615 6.47505 21.2383C6.64616 21.4152 9.35613 19.0723 12.6072 15.9975Z" fill="#FFC554"/>
<path d="M12.3474 15.6834C15.5846 12.6086 15.21 12.8886 15.1591 12.8297C15.1083 12.7707 15.4135 12.3925 12.1624 15.4673C8.91138 18.542 6.40026 21.1796 6.47425 21.2386C6.54824 21.2975 9.09636 18.7581 12.3474 15.6834Z" fill="white"/>
<path d="M36.6816 4.17523C39.6645 0.805773 39.1188 0.933479 38.8459 0.653509C38.5731 0.37354 38.6563 -0.210957 35.6735 3.1585C32.6907 6.52795 30.5218 9.48482 30.7761 9.76479C31.0305 10.0448 33.7034 7.53977 36.6816 4.17523Z" fill="#FFC554"/>
<path d="M36.1923 3.68389C39.1704 0.314437 38.7774 0.594406 38.6849 0.491259C38.5924 0.388113 38.8467 -0.0293853 35.8454 3.33516C32.8441 6.6997 30.5226 9.51413 30.6243 9.60745C30.7261 9.70077 33.2094 7.04843 36.1923 3.68389Z" fill="white"/>
<path d="M25.4351 16.2774C25.2177 16.0613 25.3564 15.5308 22.3782 18.9003C20.5793 20.9288 19.0532 22.7904 18.1699 23.9987H18.6H19.0625C20.1261 22.9623 21.5782 21.4249 23.1413 19.6567C26.1241 16.3118 25.6339 16.4985 25.4351 16.2774Z" fill="#FFC554"/>
<path d="M25.2959 16.1598C25.2219 16.0862 25.4762 15.6687 22.498 19.0381C20.7499 21.0028 19.2608 22.8251 18.3359 24.0088H18.5764H18.6273C19.6123 22.8889 21.0875 21.1846 22.757 19.2935C25.7444 15.9339 25.3699 16.2335 25.2959 16.1598Z" fill="white"/>
<path d="M24.7914 5.24591C24.3612 4.56618 23.7105 4.07836 22.9633 3.87545C22.2162 3.67254 21.4249 3.76873 20.7403 4.14568C20.1113 4.36409 19.5576 4.77611 19.1495 5.32941C18.6585 5.58177 18.2319 5.95574 17.9055 6.41982C17.6359 6.85369 17.496 7.36397 17.5043 7.88375C17.5125 8.40352 17.6685 8.90851 17.9517 9.33248C18.048 9.49644 18.1579 9.65095 18.2801 9.79418C18.2801 9.87277 18.317 9.94645 18.3448 10.0201C19.1633 12.0241 21.7392 12.3974 23.4318 11.4936C23.6092 11.3945 23.7792 11.2812 23.9405 11.1547C24.3768 10.9763 24.7675 10.6912 25.0808 10.3225C25.3942 9.95391 25.6214 9.51209 25.744 9.03286C26.1001 7.75581 25.4804 6.26264 24.7914 5.24591Z" fill="#E39B0E"/>
<path d="M24.136 5.23088C23.7635 4.63487 23.1974 4.20532 22.5458 4.02415C21.8942 3.84298 21.2026 3.92285 20.6029 4.24853C20.056 4.44201 19.5739 4.80041 19.2155 5.28C18.7877 5.50023 18.4164 5.82716 18.1334 6.23288C17.8968 6.61061 17.7741 7.05586 17.7816 7.50945C17.789 7.96304 17.9262 8.40349 18.175 8.77225C18.2566 8.91587 18.351 9.05076 18.4571 9.17501C18.4729 9.24187 18.493 9.30751 18.5172 9.37148C19.2248 11.1151 21.4723 11.4393 22.9475 10.6485C23.1088 10.5654 23.2635 10.4685 23.41 10.3587C23.7869 10.2038 24.1245 9.95743 24.3959 9.63935C24.6672 9.32127 24.8649 8.94025 24.9731 8.52666C25.2783 7.41661 24.7326 6.11499 24.136 5.23088Z" fill="#FFC554"/>
<g style="mix-blend-mode:screen">
<path d="M21.5593 7.95691C22.6507 6.84195 23.0715 5.41754 22.4842 4.77901C21.8969 4.14049 20.5511 4.5236 19.4551 5.63857C18.3591 6.75353 17.9429 8.17303 18.5302 8.81155C19.1175 9.45008 20.4633 9.06697 21.5593 7.95691Z" fill="#FFC554"/>
</g>
<g style="mix-blend-mode:multiply">
<path d="M23.9236 3.92923C21.6668 2.33291 18.573 4.6709 17.5972 6.3851C17.5558 6.50754 17.5203 6.63213 17.4908 6.75839C17.2781 7.15624 17.6943 7.56391 18.1475 7.559C18.8921 7.60321 19.225 7.91265 19.1464 8.49715C19.1874 8.65375 19.28 8.78951 19.4073 8.87967C19.5346 8.96983 19.6882 9.00839 19.8401 8.98832C20.215 8.90886 20.6001 8.90054 20.9777 8.96376C21.1238 8.99476 21.2755 8.96658 21.403 8.88478C21.5306 8.80297 21.6246 8.67346 21.6668 8.5217C21.7306 8.88945 21.8124 9.25341 21.9119 9.61211C21.9745 9.73072 22.0681 9.82762 22.1813 9.89122C22.2944 9.95481 22.4225 9.9824 22.5501 9.97067C23.2299 9.97067 23.623 9.11111 23.8773 8.65432C23.9816 8.4532 24.0608 8.23856 24.1132 8.01579C24.3305 8.18771 24.5294 8.38909 24.7282 8.56591C24.8329 8.64415 24.9564 8.68897 25.0842 8.69506C25.212 8.70115 25.3388 8.66827 25.4496 8.60029C27.1653 7.36744 25.3017 4.91157 23.9236 3.92923Z" fill="#9C5723"/>
</g>
<path d="M18.1658 6.76352C18.2537 6.626 18.2583 6.46882 18.1658 6.40988C18.0733 6.35094 17.9485 6.40988 17.8606 6.55232C17.7727 6.69476 17.7681 6.84702 17.8606 6.90596C17.9531 6.96491 18.078 6.90105 18.1658 6.76352Z" fill="white"/>
<path d="M19.7609 8.24195C19.8488 8.10443 19.8534 7.94725 19.7609 7.88831C19.6684 7.82937 19.5436 7.88831 19.4603 8.03566C19.3771 8.18301 19.3632 8.32545 19.4603 8.3844C19.5574 8.44334 19.673 8.37948 19.7609 8.24195Z" fill="white"/>
<path d="M19.6312 7.72614C19.6682 7.6672 19.6682 7.60335 19.6312 7.57879C19.5942 7.55423 19.5387 7.57879 19.5064 7.63773C19.474 7.69667 19.4647 7.76052 19.5064 7.78508C19.548 7.80964 19.5942 7.78017 19.6312 7.72614Z" fill="white"/>
<path d="M25.1675 7.99651C25.112 7.9081 25.0288 7.85898 24.9733 7.89336C24.9178 7.92775 24.9178 8.0358 24.9733 8.12422C25.0288 8.21263 25.112 8.26666 25.1675 8.22736C25.223 8.18807 25.2184 8.08983 25.1675 7.99651Z" fill="white"/>
<path d="M22.4335 9.24387C22.4335 9.04249 22.3595 8.87549 22.2624 8.87549C22.1653 8.87549 22.082 9.03758 22.082 9.23896C22.082 9.44034 22.156 9.60243 22.2531 9.60734C22.3503 9.61225 22.4289 9.44525 22.4335 9.24387Z" fill="white"/>
<path d="M22.7663 3.85573C22.6645 3.62488 21.7489 3.76241 20.7222 4.16026C19.6956 4.55811 18.9603 5.06893 19.0435 5.29487C19.1268 5.52081 19.8251 4.8037 20.8563 4.41076C21.8876 4.01782 22.868 4.08167 22.7663 3.85573Z" fill="white"/>
<path d="M20.6846 9.04764C20.205 8.29487 19.4826 7.75445 18.6538 7.52826C17.8249 7.30207 16.9468 7.40573 16.1849 7.81971C15.4851 8.06302 14.8687 8.52107 14.4137 9.13605C13.8671 9.41987 13.3916 9.83733 13.0264 10.3542C12.3512 11.3955 12.4899 12.5595 13.0819 13.6008C13.1892 13.7748 13.3098 13.9391 13.4426 14.092C13.4703 14.1706 13.4842 14.259 13.5166 14.3425C14.4415 16.5724 17.2948 16.985 19.1862 15.9781C19.3847 15.8677 19.5748 15.7412 19.7551 15.5999C20.2331 15.4 20.6609 15.0847 21.0044 14.6789C21.3479 14.2731 21.5978 13.788 21.7344 13.2619C22.1413 11.8424 21.4476 10.1773 20.6846 9.04764Z" fill="#E39B0E"/>
<path d="M19.9503 9.02796C19.5317 8.36847 18.8997 7.89513 18.1743 7.69775C17.4488 7.50038 16.6804 7.5927 16.0148 7.9572C15.4068 8.17223 14.8714 8.57182 14.4748 9.10655C14.0003 9.35352 13.5881 9.71725 13.2725 10.1675C13.0089 10.5881 12.8718 11.0838 12.8792 11.5889C12.8866 12.0941 13.0383 12.585 13.3141 12.9966C13.408 13.1539 13.5131 13.3034 13.6286 13.4436C13.6563 13.5173 13.6702 13.591 13.6979 13.6597C14.4887 15.6244 16.9906 15.9682 18.6323 15.089C18.8059 14.9921 18.9728 14.8821 19.1317 14.76C19.5549 14.5869 19.9336 14.3104 20.2373 13.9528C20.541 13.5953 20.7612 13.1667 20.8798 12.7019C21.222 11.4642 20.6162 10.0152 19.9503 9.02796Z" fill="#FFC554"/>
<g style="mix-blend-mode:screen">
<path d="M17.0778 12.0632C18.2987 10.8205 18.7657 9.23897 18.1229 8.52677C17.4801 7.81456 15.9725 8.24188 14.7516 9.47964C13.5308 10.7174 13.0637 12.3039 13.7065 13.021C14.3493 13.7381 15.8569 13.3059 17.0778 12.0632Z" fill="#FFC554"/>
</g>
<g style="mix-blend-mode:multiply">
<path d="M19.7088 7.60359C17.1977 5.82554 13.7524 8.42876 12.6656 10.3149C12.6194 10.3984 12.5824 10.6636 12.5454 10.7275C12.3095 11.1744 12.7766 11.6263 13.2761 11.6214C14.1085 11.6656 14.4784 12.0143 14.3906 12.6627C14.4273 12.847 14.5271 13.0102 14.6706 13.1209C14.8141 13.2316 14.9912 13.2818 15.1675 13.2619C15.585 13.1734 16.0139 13.1634 16.4346 13.2324C16.5972 13.2667 16.7659 13.2354 16.9079 13.1445C17.0499 13.0537 17.1548 12.9099 17.2023 12.7413C17.2708 13.151 17.3619 13.5561 17.4751 13.9545C17.5444 14.0876 17.6486 14.1965 17.775 14.268C17.9014 14.3395 18.0447 14.3705 18.1873 14.3572C18.9411 14.3572 19.3805 13.3749 19.6625 12.8837C19.7785 12.6597 19.8656 12.4202 19.9215 12.1715C20.162 12.368 20.384 12.589 20.6106 12.7855C20.7263 12.8729 20.8633 12.9231 21.0052 12.93C21.147 12.937 21.2878 12.9005 21.4106 12.8248C23.3206 11.4004 21.2441 8.68908 19.7088 7.60359Z" fill="#9C5723"/>
</g>
<path d="M13.3006 10.7374C13.3977 10.5851 13.407 10.4083 13.3006 10.3395C13.1942 10.2707 13.0648 10.3395 12.963 10.5016C12.8613 10.6637 12.8613 10.8307 12.963 10.8945C13.0648 10.9584 13.2035 10.8896 13.3006 10.7374Z" fill="white"/>
<path d="M15.0801 12.3827C15.1773 12.2304 15.1819 12.0536 15.0801 11.9898C14.9784 11.9259 14.8397 11.9898 14.7425 12.1518C14.6454 12.3139 14.6408 12.4809 14.7425 12.5448C14.8443 12.6086 14.983 12.535 15.0801 12.3827Z" fill="white"/>
<path d="M14.9317 11.7882C14.9733 11.7243 14.9733 11.6506 14.9317 11.6261C14.8901 11.6015 14.8346 11.6261 14.7929 11.6899C14.7513 11.7538 14.7513 11.8274 14.7929 11.852C14.8346 11.8766 14.8901 11.8717 14.9317 11.7882Z" fill="white"/>
<path d="M21.0977 12.1127C21.0422 12.0095 20.9451 11.9604 20.8849 11.9948C20.8248 12.0292 20.8248 12.152 20.8849 12.2551C20.9451 12.3582 21.0422 12.4074 21.1023 12.3681C21.1624 12.3288 21.1578 12.2158 21.0977 12.1127Z" fill="white"/>
<path d="M18.0349 13.4975C18.0349 13.2716 17.9517 13.0898 17.8453 13.0898C17.739 13.0898 17.6465 13.2667 17.6465 13.4926C17.6465 13.7185 17.7297 13.9003 17.8361 13.9003C17.9425 13.9003 18.0349 13.7235 18.0349 13.4975Z" fill="white"/>
<path d="M18.429 7.49531C18.3134 7.2399 17.296 7.39217 16.1491 7.83914C15.0022 8.28611 14.1652 8.84604 14.2993 9.10145C14.4334 9.35687 15.1733 8.56116 16.3156 8.11911C17.4578 7.67705 18.54 7.75073 18.429 7.49531Z" fill="white"/>
<path d="M15.908 13.4532C15.4015 12.6549 14.6366 12.0818 13.7586 11.8428C12.8806 11.6037 11.9504 11.7154 11.1448 12.1565C10.4124 12.4157 9.76878 12.8993 9.29497 13.5466C8.7177 13.8426 8.21634 14.2824 7.83361 14.8285C7.12144 15.9288 7.2648 17.1567 7.88911 18.2667C8.00082 18.458 8.12769 18.6387 8.26832 18.807C8.30069 18.8954 8.31456 18.9888 8.35156 19.0723C9.30884 21.4299 12.3379 21.867 14.3311 20.8012C14.5419 20.6872 14.743 20.554 14.9323 20.4033C15.4455 20.1942 15.9049 19.8592 16.273 19.4255C16.6411 18.9919 16.9074 18.472 17.0503 17.9082C17.448 16.4003 16.7173 14.6468 15.908 13.4532Z" fill="#E39B0E"/>
<path d="M15.1361 13.4286C14.6916 12.7332 14.0228 12.2348 13.2559 12.0276C12.4891 11.8203 11.6773 11.9186 10.974 12.3038C10.3315 12.5281 9.76534 12.9483 9.34615 13.5121C8.84468 13.7731 8.40879 14.1569 8.07441 14.632C7.79707 15.0766 7.65343 15.6002 7.66252 16.1335C7.6716 16.6668 7.83298 17.1846 8.12528 17.6183C8.22016 17.7925 8.33008 17.9569 8.45362 18.1095C8.48137 18.1881 8.49524 18.2666 8.52761 18.3403C9.36003 20.3934 12.0006 20.7962 13.7348 19.8482C13.9193 19.7476 14.0957 19.631 14.262 19.4995C14.71 19.3173 15.1111 19.0253 15.4326 18.6471C15.7541 18.269 15.9868 17.8155 16.1118 17.3236C16.4772 16.0023 15.839 14.4699 15.1361 13.4286Z" fill="#FFC554"/>
<g style="mix-blend-mode:screen">
<path d="M12.1071 16.6359C13.4112 15.3245 13.8737 13.6545 13.2078 12.8981C12.5418 12.1417 10.9371 12.5985 9.64687 13.9099C8.35663 15.2214 7.86643 16.8914 8.54623 17.6429C9.22604 18.3943 10.8169 17.9425 12.1071 16.6359Z" fill="#FFC554"/>
</g>
<g style="mix-blend-mode:multiply">
<path d="M14.8819 11.9258C12.2321 10.0495 8.59257 12.8001 7.45031 14.804C7.39944 14.8925 7.35782 15.1675 7.32083 15.2412C7.07573 15.7176 7.56593 16.2088 8.09312 16.2088C8.97178 16.253 9.36024 16.6214 9.27238 17.309C9.31799 17.4956 9.42541 17.6583 9.57492 17.7675C9.72443 17.8767 9.906 17.9249 10.0863 17.9034C10.5282 17.8099 10.9822 17.7999 11.4274 17.8739C11.5986 17.9106 11.7766 17.8774 11.9257 17.7809C12.0749 17.6844 12.1843 17.5317 12.2321 17.3532C12.3081 17.7857 12.4054 18.2136 12.5234 18.6352C12.5963 18.7752 12.7059 18.8896 12.8389 18.9646C12.972 19.0396 13.1226 19.0719 13.2726 19.0576C14.068 19.0576 14.5351 18.0458 14.8357 17.5104C14.9551 17.2726 15.0467 17.0203 15.1085 16.7589C15.3629 16.9652 15.5987 17.201 15.8346 17.4073C15.9576 17.4984 16.1025 17.5505 16.2524 17.5574C16.4022 17.5644 16.5508 17.5259 16.6809 17.4466C18.6972 15.9337 16.5051 13.0751 14.8819 11.9258Z" fill="#9C5723"/>
</g>
<path d="M8.11559 15.2266C8.22195 15.0694 8.22658 14.8828 8.11559 14.814C8.0046 14.7453 7.86124 14.814 7.7595 14.981C7.65776 15.148 7.64851 15.3298 7.7595 15.3985C7.87049 15.4673 8.01385 15.3936 8.11559 15.2266Z" fill="white"/>
<path d="M9.99322 16.9703C10.0996 16.8082 10.1042 16.6265 9.99322 16.5577C9.88223 16.4889 9.73887 16.5577 9.63251 16.7247C9.52614 16.8917 9.52614 17.0734 9.63251 17.1422C9.73887 17.2109 9.89148 17.1324 9.99322 16.9703Z" fill="white"/>
<path d="M9.84111 16.3659C9.88274 16.2971 9.88736 16.2185 9.84111 16.189C9.79487 16.1596 9.73475 16.189 9.69313 16.2627C9.65151 16.3364 9.64688 16.4051 9.69313 16.4346C9.73937 16.4641 9.79487 16.4297 9.84111 16.3659Z" fill="white"/>
<path d="M16.3477 16.7C16.2875 16.592 16.1812 16.538 16.1211 16.5773C16.0609 16.6165 16.0563 16.7443 16.1211 16.8523C16.1858 16.9604 16.2875 17.0144 16.3523 16.9702C16.417 16.926 16.4124 16.7934 16.3477 16.7Z" fill="white"/>
<path d="M13.1344 18.1734C13.1344 17.9328 13.0465 17.7412 12.9356 17.7412C12.8246 17.7412 12.7274 17.9328 12.7228 18.1685C12.7182 18.4043 12.8107 18.5959 12.9263 18.6008C13.0419 18.6057 13.1344 18.3846 13.1344 18.1734Z" fill="white"/>
<path d="M13.5264 11.813C13.4108 11.5478 12.3333 11.705 11.1217 12.1765C9.91005 12.648 9.03139 13.262 9.15163 13.5076C9.27187 13.7532 10.0765 12.9378 11.2789 12.4712C12.4813 12.0046 13.6467 12.0832 13.5264 11.813Z" fill="white"/>
<path d="M34.6184 5.50593C34.0812 4.85029 33.3356 4.42742 32.5238 4.31782C31.7119 4.20823 30.8905 4.41957 30.2159 4.91161C29.5751 5.22967 29.0376 5.74248 28.6713 6.38513C28.1876 6.71805 27.7864 7.1695 27.5013 7.70148C27.2708 8.19599 27.1867 8.75305 27.2602 9.29929C27.3337 9.84553 27.5612 10.3553 27.9129 10.7615C28.0337 10.9218 28.1684 11.0698 28.3152 11.2036C28.3437 11.2807 28.3761 11.3561 28.4123 11.4295C29.5176 13.4237 32.2738 13.4531 33.9618 12.2645C34.1389 12.1366 34.3059 11.9937 34.4612 11.8372C34.8958 11.5832 35.268 11.224 35.5476 10.7888C35.8272 10.3536 36.0063 9.85461 36.0705 9.33218C36.3064 7.9618 35.4647 6.47846 34.6184 5.50593Z" fill="#E39B0E"/>
<path d="M33.9255 5.58C33.4536 5.01425 32.8029 4.65182 32.0964 4.56131C31.3899 4.47079 30.6767 4.65847 30.0917 5.08883C29.539 5.3663 29.0769 5.81268 28.7645 6.3708C28.3461 6.6546 27.9973 7.04017 27.7471 7.49558C27.5454 7.92654 27.4719 8.41244 27.5364 8.88879C27.6008 9.36515 27.8001 9.80943 28.1078 10.1627C28.2125 10.301 28.3286 10.4292 28.4547 10.5458C28.4801 10.6131 28.5095 10.6787 28.5425 10.7422C29.5044 12.4761 31.9046 12.5056 33.3613 11.4692C33.5134 11.3566 33.6572 11.2318 33.7914 11.0959C34.1721 10.8794 34.4992 10.5702 34.7459 10.1938C34.9927 9.81733 35.1521 9.38421 35.2111 8.92981C35.3961 7.72152 34.6839 6.42974 33.9255 5.58Z" fill="#FFC554"/>
<g style="mix-blend-mode:screen">
<path d="M31.5523 8.8067C32.5651 7.48053 32.8287 5.92841 32.1397 5.33409C31.4506 4.73977 30.0771 5.33409 29.0643 6.66026C28.0516 7.98643 27.7833 9.54346 28.4724 10.1329C29.1615 10.7223 30.5211 10.1329 31.5523 8.8067Z" fill="#FFC554"/>
</g>
<g style="mix-blend-mode:multiply">
<path d="M33.537 4.26854C30.9703 2.90308 27.9875 5.79609 27.1921 7.70676C27.1551 7.79517 27.1505 8.04567 27.1227 8.10953C26.9516 8.56141 27.4418 8.92979 27.9135 8.86102C28.7043 8.80208 29.0928 9.08205 29.0835 9.70584C29.1437 9.86741 29.257 10.0003 29.4025 10.0798C29.5479 10.1593 29.7156 10.18 29.8743 10.1381C30.2605 10.0033 30.6659 9.94181 31.0721 9.95634C31.2291 9.96945 31.385 9.91903 31.5085 9.81518C31.632 9.71134 31.714 9.56175 31.738 9.3964C31.8511 9.77397 31.9839 10.1446 32.1357 10.5065C32.2126 10.6225 32.3194 10.7125 32.4433 10.7657C32.5671 10.8188 32.7028 10.8329 32.834 10.8061C33.5462 10.7029 33.8561 9.75005 34.0688 9.23431C34.1497 9.00781 34.2055 8.77211 34.2353 8.53194C34.4804 8.6842 34.6977 8.86593 34.9521 9.02311C35.0712 9.08971 35.2057 9.11906 35.34 9.10776C35.4742 9.09646 35.6027 9.04497 35.7105 8.95926C37.3707 7.39732 35.1093 5.09863 33.537 4.26854Z" fill="#9C5723"/>
</g>
<path d="M27.8347 8.02598C27.9087 7.87371 27.8994 7.70672 27.807 7.6576C27.7145 7.60848 27.5804 7.69198 27.5064 7.84916C27.4324 8.00633 27.4416 8.17333 27.5341 8.22245C27.6266 8.27157 27.7468 8.18315 27.8347 8.02598Z" fill="white"/>
<path d="M29.6988 9.362C29.7728 9.20482 29.7589 9.03782 29.671 8.98871C29.5831 8.93959 29.4444 9.028 29.3658 9.18027C29.2872 9.33253 29.3057 9.50444 29.3982 9.55356C29.4907 9.60268 29.6248 9.51918 29.6988 9.362Z" fill="white"/>
<path d="M29.4947 8.84144C29.5271 8.77759 29.5225 8.70392 29.4947 8.68427C29.467 8.66462 29.4022 8.68427 29.3699 8.76777C29.3375 8.85127 29.3699 8.90039 29.3699 8.92003C29.3699 8.93968 29.4623 8.90039 29.4947 8.84144Z" fill="white"/>
<path d="M35.3498 8.35017C35.2851 8.25685 35.188 8.22246 35.1325 8.26667C35.077 8.31088 35.0955 8.41893 35.1602 8.50735C35.225 8.59576 35.3267 8.63505 35.3776 8.59084C35.4284 8.54664 35.4192 8.43858 35.3498 8.35017Z" fill="white"/>
<path d="M32.63 10.0397C32.63 9.82357 32.5052 9.66639 32.4034 9.67622C32.3017 9.68604 32.2416 9.87269 32.2647 10.0839C32.2878 10.2951 32.3849 10.4572 32.4867 10.4474C32.5884 10.4375 32.6532 10.2509 32.63 10.0397Z" fill="white"/>
<path d="M32.316 4.3273C32.1773 4.10136 31.2339 4.3715 30.2026 4.93635C29.1713 5.5012 28.4407 6.13973 28.5794 6.38532C28.7181 6.6309 29.3425 5.76644 30.3737 5.20159C31.405 4.63674 32.4501 4.55324 32.316 4.3273Z" fill="white"/>
<path d="M30.7672 10.0788C30.1701 9.34676 29.3395 8.87468 28.4348 8.7532C27.5301 8.63173 26.615 8.86943 25.8652 9.42068C25.1606 9.7772 24.5704 10.346 24.168 11.0563C23.63 11.4299 23.1843 11.9352 22.8685 12.5298C22.2858 13.7185 22.5725 14.9267 23.331 15.9386C23.4703 16.1173 23.6251 16.2818 23.7934 16.4297C23.8304 16.5132 23.8581 16.5967 23.9044 16.6802C25.1345 18.9003 28.2052 18.9347 30.0643 17.6086C30.261 17.4624 30.4451 17.298 30.6146 17.1174C31.1015 16.8415 31.52 16.4471 31.8359 15.9665C32.1518 15.4859 32.3561 14.9326 32.432 14.3521C32.6494 12.8147 31.7106 11.1594 30.7672 10.0788Z" fill="#E39B0E"/>
<path d="M29.9953 10.1626C29.4737 9.52812 28.7508 9.11908 27.964 9.01314C27.1772 8.90721 26.3811 9.11176 25.7269 9.58797C25.1122 9.89743 24.5973 10.393 24.2471 11.0124C23.7826 11.3335 23.3973 11.768 23.1233 12.2796C22.9018 12.7561 22.8213 13.2926 22.8923 13.8186C22.9633 14.3446 23.1824 14.8354 23.521 15.2267C23.6369 15.3808 23.7653 15.5238 23.9048 15.654C23.9418 15.7277 23.965 15.8062 24.002 15.875C25.0748 17.8102 27.7524 17.8397 29.371 16.6854C29.5357 16.56 29.6904 16.4203 29.8335 16.2679C30.2594 16.0342 30.6275 15.6971 30.9079 15.2841C31.1883 14.8711 31.3731 14.3937 31.4474 13.8907C31.6324 12.5448 30.8185 11.1057 29.9953 10.1626Z" fill="#FFC554"/>
<g style="mix-blend-mode:screen">
<path d="M27.3533 13.7528C28.4817 12.2793 28.7777 10.5503 28.01 9.88725C27.2423 9.22417 25.6977 9.88725 24.5832 11.3608C23.4687 12.8343 23.1589 14.5731 23.9219 15.2263C24.685 15.8796 26.2249 15.2263 27.3533 13.7528Z" fill="#FFC554"/>
</g>
<g style="mix-blend-mode:multiply">
<path d="M29.5652 8.69883C26.7026 7.18111 23.4053 10.3983 22.4989 12.5496C22.4573 12.6479 22.4527 12.9278 22.4249 13.0015C22.2307 13.4927 22.7764 13.9102 23.3036 13.8365C24.1822 13.7678 24.6169 14.0821 24.6077 14.7747C24.6716 14.957 24.7966 15.1079 24.9587 15.1985C25.1208 15.2891 25.3087 15.3131 25.4864 15.2658C25.9163 15.1108 26.369 15.0393 26.8228 15.0546C26.9983 15.0705 27.1729 15.0148 27.3112 14.899C27.4494 14.7831 27.541 14.6158 27.5674 14.4308C27.6909 14.8522 27.8376 15.2655 28.0067 15.6686C28.0958 15.7982 28.2184 15.8974 28.3597 15.9541C28.5009 16.0108 28.6547 16.0225 28.8021 15.9879C29.5976 15.8798 29.9398 14.8189 30.1895 14.2393C30.2836 13.9888 30.3458 13.7262 30.3745 13.4583C30.652 13.6302 30.9156 13.8267 31.1745 14.0035C31.307 14.0793 31.4572 14.113 31.6072 14.1009C31.7572 14.0887 31.9007 14.031 32.0208 13.9348C33.8383 12.1862 31.3179 9.62224 29.5652 8.69883Z" fill="#9C5723"/>
</g>
<path d="M23.2152 12.8884C23.2985 12.7116 23.2846 12.5249 23.1829 12.4709C23.0811 12.4169 22.9285 12.5151 22.8453 12.687C22.762 12.8589 22.7759 13.0505 22.8777 13.1045C22.9794 13.1585 23.1228 13.0603 23.2152 12.8884Z" fill="white"/>
<path d="M25.2914 14.3717C25.3747 14.1949 25.3562 14.0131 25.2544 13.9542C25.1527 13.8952 25.0047 13.9984 24.9215 14.1703C24.8382 14.3422 24.8521 14.5338 24.9538 14.5878C25.0556 14.6418 25.2082 14.5436 25.2914 14.3717Z" fill="white"/>
<path d="M25.0654 13.7873C25.0977 13.7136 25.0931 13.635 25.0654 13.6154C25.0376 13.5957 24.959 13.6154 24.9266 13.7038C24.8943 13.7922 24.8943 13.8511 24.9266 13.8757C24.959 13.9002 25.0284 13.8609 25.0654 13.7873Z" fill="white"/>
<path d="M31.5847 13.2619C31.5108 13.1637 31.3998 13.1244 31.3443 13.1735C31.2888 13.2226 31.298 13.3454 31.372 13.4436C31.446 13.5419 31.557 13.5812 31.6171 13.532C31.6772 13.4829 31.6587 13.3454 31.5847 13.2619Z" fill="white"/>
<path d="M28.5564 15.1282C28.5564 14.8876 28.4177 14.7107 28.3067 14.7255C28.1957 14.7402 28.1217 14.9416 28.1449 15.1773C28.168 15.4131 28.2836 15.5948 28.3992 15.5801C28.5148 15.5654 28.5842 15.364 28.5564 15.1282Z" fill="white"/>
<path d="M28.2088 8.76252C28.0562 8.51202 27.0018 8.81655 25.8549 9.44034C24.708 10.0641 23.8895 10.8058 24.0467 11.0317C24.2039 11.2577 24.8976 10.3441 26.0445 9.7154C27.1914 9.0867 28.3521 9.01793 28.2088 8.76252Z" fill="white"/>
<path d="M26.2956 15.3788C25.663 14.6097 24.7868 14.1139 23.8329 13.9853C22.8791 13.8568 21.9141 14.1044 21.1207 14.6813C20.3761 15.0567 19.7532 15.6584 19.331 16.4102C18.7586 16.8026 18.2828 17.3348 17.9436 17.9623C17.3332 19.2148 17.6384 20.4919 18.4061 21.5577C18.5469 21.735 18.7016 21.8993 18.8686 22.0489C18.9039 22.1396 18.9441 22.2282 18.9888 22.3141C20.2883 24.657 23.5301 24.6963 25.4909 23.2965C25.6983 23.1512 25.8932 22.9868 26.0736 22.8053C26.5905 22.5109 27.0342 22.0901 27.3679 21.5777C27.7016 21.0653 27.9157 20.4759 27.9928 19.8583C28.2795 18.2669 27.2852 16.5232 26.2956 15.3788Z" fill="#E39B0E"/>
<path d="M25.482 15.4672C24.9315 14.7962 24.168 14.3635 23.3367 14.2512C22.5054 14.1389 21.6642 14.3549 20.9731 14.8582C20.3309 15.1899 19.7929 15.7119 19.4239 16.3612C18.9304 16.7075 18.5202 17.1718 18.2261 17.7168C17.9904 18.2233 17.9044 18.7936 17.9795 19.3529C18.0546 19.9122 18.2873 20.4343 18.647 20.8505C18.7722 21.0114 18.9099 21.1609 19.0585 21.2975C19.0886 21.3779 19.1226 21.4566 19.1603 21.5332C20.2748 23.5765 23.1235 23.606 24.8115 22.3879C24.9906 22.2552 25.1606 22.1091 25.3202 21.9507C25.7672 21.6947 26.1513 21.3306 26.4413 20.8877C26.7313 20.4449 26.9191 19.9358 26.9896 19.4015C27.207 17.982 26.3607 16.4643 25.482 15.4672Z" fill="#FFC554"/>
<g style="mix-blend-mode:screen">
<path d="M22.6882 19.2589C23.8814 17.7019 24.1912 15.8747 23.3865 15.1772C22.5819 14.4798 20.9587 15.1772 19.7655 16.7392C18.5724 18.3011 18.2626 20.1234 19.0719 20.8208C19.8812 21.5183 21.4997 20.8159 22.6882 19.2589Z" fill="#FFC554"/>
</g>
<g style="mix-blend-mode:multiply">
<path d="M25.0282 13.9198C22.0038 12.3185 18.5215 15.7175 17.5735 17.9867C17.5318 18.0898 17.5272 18.3845 17.4949 18.4779C17.2914 19.0132 17.8694 19.4602 18.4198 19.362C19.3447 19.2932 19.8071 19.6223 19.8071 20.3443C19.8801 20.5305 20.0137 20.6825 20.1835 20.7727C20.3533 20.8629 20.548 20.8852 20.732 20.8355C21.1794 20.6793 21.6487 20.6062 22.1194 20.6194C22.3045 20.6354 22.4884 20.5764 22.6342 20.4543C22.78 20.3322 22.877 20.1561 22.9056 19.9612C23.038 20.4067 23.1924 20.8444 23.368 21.2726C23.4616 21.409 23.5907 21.5133 23.7395 21.5727C23.8882 21.632 24.0501 21.6438 24.205 21.6066C25.0421 21.4888 25.4074 20.3689 25.6572 19.7598C25.7543 19.4945 25.8195 19.2173 25.8514 18.9347C26.1427 19.1164 26.4248 19.3276 26.693 19.5093C26.8335 19.5896 26.9928 19.6254 27.1518 19.6123C27.3109 19.5993 27.463 19.538 27.5902 19.4357C29.5325 17.5987 26.8734 14.8972 25.0282 13.9198Z" fill="#9C5723"/>
</g>
<path d="M18.3231 18.3404C18.411 18.1587 18.3971 17.9622 18.2861 17.9033C18.1751 17.8444 18.0225 17.9475 17.9346 18.1342C17.8468 18.3208 17.8606 18.5124 17.967 18.5713C18.0734 18.6302 18.2352 18.5271 18.3231 18.3404Z" fill="white"/>
<path d="M20.5153 19.9074C20.6032 19.7256 20.5847 19.5292 20.4783 19.4702C20.3719 19.4113 20.2101 19.5144 20.1222 19.6962C20.0344 19.8779 20.0529 20.0793 20.1592 20.1382C20.2656 20.1972 20.4274 20.094 20.5153 19.9074Z" fill="white"/>
<path d="M20.2736 19.2932C20.3106 19.2146 20.3014 19.1311 20.2736 19.1065C20.2459 19.082 20.1626 19.1065 20.1257 19.2047C20.0887 19.303 20.0933 19.3619 20.1257 19.3865C20.158 19.411 20.2366 19.3668 20.2736 19.2932Z" fill="white"/>
<path d="M27.1549 18.7188C27.0763 18.6107 26.9653 18.5714 26.9006 18.6205C26.8358 18.6696 26.8543 18.8023 26.933 18.9054C27.0116 19.0085 27.1272 19.0577 27.1873 19.0036C27.2474 18.9496 27.2382 18.8219 27.1549 18.7188Z" fill="white"/>
<path d="M23.9598 20.703C23.9321 20.4574 23.8165 20.2658 23.6962 20.2806C23.576 20.2953 23.4974 20.5065 23.5251 20.7718C23.5529 21.037 23.6731 21.2138 23.7933 21.1991C23.9136 21.1843 23.9876 20.9535 23.9598 20.703Z" fill="white"/>
<path d="M23.5849 13.9888C23.4231 13.7236 22.3132 14.0428 21.0969 14.7059C19.8807 15.369 19.0298 16.1205 19.1916 16.3857C19.3535 16.651 20.0888 15.6588 21.3004 14.9957C22.512 14.3326 23.7468 14.2442 23.5849 13.9888Z" fill="white"/>
</g>
<defs>
<clipPath id="clip0_1203_16192">
<rect width="42" height="32" fill="white"/>
</clipPath>
</defs>
</svg>
