<svg width="110" height="84" viewBox="0 0 110 84" fill="none" xmlns="http://www.w3.org/2000/svg">
<g clip-path="url(#clip0_1203_16749)">
<g style="mix-blend-mode:multiply">
<path d="M106.625 74.8806C106.485 74.6469 106.3 74.4431 106.081 74.2811C106.916 73.6635 107.006 72.4645 106.081 71.1566C105.653 70.5339 105.111 69.9977 104.484 69.5761C105.036 69.223 105.466 68.7096 105.718 68.1047C105.853 67.7357 105.91 67.3428 105.886 66.9507C105.861 66.5586 105.757 66.1758 105.578 65.8261C105.399 65.4765 105.15 65.1676 104.846 64.9189C104.542 64.6701 104.191 64.4869 103.813 64.3806C105.228 63.6358 105.627 62.564 104.793 61.7829C103.008 60.7359 100.88 60.4418 98.8783 60.9654L98.6787 60.7837C98.7971 60.6651 98.9063 60.5376 99.0052 60.4022C99.2785 60.0649 99.4609 59.6631 99.5352 59.2352C99.6094 58.8072 99.5729 58.3674 99.4292 57.9576C99.2855 57.5478 99.0393 57.1816 98.7142 56.8941C98.3891 56.6065 97.9959 56.4071 97.572 56.3149C97.1729 56.1823 96.7581 56.1029 96.3382 56.0787C95.1266 54.6531 93.4602 53.6905 91.6211 53.3538C90.528 53.0329 89.4019 52.8379 88.2647 52.7725C88.2293 52.5659 88.1684 52.3645 88.0833 52.173C87.6387 51.2277 86.9434 50.4228 86.0731 49.8462C85.2029 49.2695 84.1912 48.9433 83.1484 48.9031C82.9732 48.8942 82.7975 48.8942 82.6223 48.9031C80.8756 47.7823 78.8128 47.2596 76.744 47.4135C76.0374 47.4235 75.3331 47.4965 74.6394 47.6315C74.6482 47.5591 74.6482 47.4859 74.6394 47.4135C74.6181 46.4266 74.2377 45.4814 73.5695 44.7555C72.9014 44.0296 71.9915 43.573 71.0109 43.4714C70.5078 43.3711 69.9899 43.3711 69.4869 43.4714C67.559 42.304 65.3074 41.7882 63.0643 42C62.0794 42.035 61.1033 42.1999 60.1614 42.4905C59.6208 41.5918 58.8611 40.8453 57.9535 40.321C57.0459 39.7967 56.0202 39.5118 54.9726 39.4931C54.4379 39.4468 53.9063 39.6105 53.4899 39.9494C53.0735 40.2884 52.8049 40.7762 52.741 41.3097C52.6937 41.2031 52.6392 41.0999 52.5777 41.0009C51.9846 40.1003 51.1759 39.3626 50.2253 38.8549C49.2746 38.3473 48.2122 38.0858 47.1349 38.0943C46.6673 38.116 46.2177 38.2808 45.8468 38.5666C44.1245 37.8609 42.2548 37.5925 40.4039 37.7855C39.442 37.854 38.498 38.0811 37.6099 38.4576C37.0099 37.6599 36.2348 37.0108 35.3446 36.5604C34.4544 36.11 33.4728 35.8703 32.4755 35.8598C32.1198 35.8354 31.7638 35.9034 31.4421 36.0573C31.1203 36.2113 30.8438 36.4458 30.6394 36.7383C30.4349 37.0308 30.3094 37.3712 30.2751 37.7266C30.2408 38.0819 30.2988 38.4401 30.4435 38.7664C29.6557 37.9314 28.696 37.2779 27.6308 36.8513C26.5656 36.4246 25.4205 36.2351 24.2749 36.2958C23.9882 36.3399 23.7162 36.4522 23.4818 36.6233C23.2474 36.7943 23.0573 37.0192 22.9276 37.279C22.7979 37.5388 22.7323 37.8259 22.7362 38.1163C22.7402 38.4067 22.8137 38.692 22.9505 38.9481C22.0462 38.1752 20.9881 37.6038 19.8464 37.2718C18.7046 36.9398 17.5054 36.8548 16.3284 37.0225C14.7136 37.4766 14.7862 39.0934 16.4191 40.7465L15.7296 40.5285C12.6998 39.6929 9.68808 39.9654 9.16194 40.9282C8.96237 41.3642 9.16194 41.8547 9.68808 42.3451C8.86324 42.075 7.98461 42.0126 7.12994 42.1635C5.31566 42.5813 5.42452 44.2889 7.12994 46.0147C6.63237 46.1606 6.16977 46.4066 5.77046 46.7377C5.37115 47.0688 5.04353 47.478 4.80766 47.9403C4.55783 48.459 4.48466 49.0454 4.59935 49.6097C4.71403 50.174 5.01025 50.6852 5.44266 51.0649C4.08195 51.2829 3.1748 51.7552 3.1748 52.4273C3.1748 53.0995 4.73509 54.3348 6.9848 54.9524C6.00509 55.0614 5.27937 55.3521 5.04352 55.8244C4.49923 56.8962 6.64009 58.4948 9.83322 59.3668L10.4319 59.5121C9.94208 59.7664 9.63365 60.0752 9.63365 60.4567C9.63365 61.6739 12.3369 63.0182 15.6752 63.4541C14.9858 63.763 14.6048 64.1626 14.6774 64.6531C14.8588 65.8339 17.6165 67.0147 20.8278 67.2509C21.3112 67.2774 21.7958 67.2774 22.2792 67.2509C21.2814 68.0683 21.1362 69.0675 22.0796 69.7941C23.8429 70.7589 25.9116 70.9999 27.8491 70.4663C29.2494 71.8905 31.1196 72.7558 33.1105 72.9005C34.1763 73.0862 35.2594 73.1532 36.3399 73.1003C36.3399 73.2275 36.3399 73.3547 36.4488 73.5C36.8915 74.539 37.6262 75.427 38.5634 76.0558C39.5007 76.6847 40.6002 77.0274 41.7283 77.0424C42.4644 77.0599 43.179 76.7933 43.724 76.2976C43.8334 76.4636 43.9547 76.6214 44.0869 76.7699C44.7903 77.6014 45.6741 78.2611 46.6708 78.6987C47.6675 79.1363 48.7508 79.3402 49.8382 79.295C50.218 79.2416 50.5758 79.0845 50.8723 78.8408C51.0106 79.1496 51.2108 79.4267 51.4605 79.6548C51.7102 79.8829 52.004 80.0572 52.3237 80.1669C53.0954 80.428 53.9138 80.521 54.7242 80.4395C55.5347 80.3581 56.3183 80.1041 57.0227 79.6946C57.0796 79.8925 57.1932 80.0693 57.3493 80.2033C58.4379 81.3296 61.5403 81.7656 64.2617 81.1479C64.836 81.0183 65.3953 80.8295 65.9309 80.5848C66.2025 81.5067 66.7465 82.3246 67.4914 82.931C68.2362 83.5374 69.1469 83.9037 70.1037 83.9818C70.7038 84.0785 71.3188 84.0056 71.8797 83.7713C72.4407 83.537 72.9251 83.1507 73.2787 82.6557C73.5935 83.1267 74.0516 83.4834 74.585 83.673C75.575 84.0193 76.6398 84.0924 77.6677 83.8846C78.6956 83.6769 79.6487 83.1959 80.427 82.4922C80.752 82.8855 81.1698 83.1914 81.6426 83.3823C82.6774 83.7409 83.7896 83.8137 84.8623 83.5932C85.935 83.3726 86.9286 82.8668 87.7386 82.1289C88.0256 82.4318 88.3713 82.6728 88.7545 82.8374C89.7637 83.1946 90.8485 83.282 91.9017 83.0908C92.955 82.8997 93.9401 82.4366 94.7598 81.7474C95.0287 81.5216 95.2504 81.2449 95.4123 80.9332C95.5742 80.6215 95.6731 80.2808 95.7033 79.9308C98.0074 80.7846 100.33 80.9481 101.255 80.2578C102.18 79.5675 101.436 78.4412 99.7854 77.2967C100.528 77.3517 101.274 77.3517 102.017 77.2967C105.228 77.1877 107.242 76.0977 106.625 74.8806Z" fill="#B8B5AA"/>
</g>
<path d="M108.857 49.4118C108.704 49.0722 108.482 48.7688 108.203 48.5217C108.563 47.6059 108.705 46.6194 108.62 45.6393C108.535 44.6592 108.225 43.7121 107.714 42.872C107.258 41.9855 106.643 41.191 105.899 40.5286C106.416 39.5904 106.742 38.5595 106.861 37.4949C107.187 34.5883 106.063 32.045 104.303 31.4274C104.922 30.7653 105.307 29.9179 105.399 29.0154C105.491 28.1129 105.284 27.2052 104.811 26.4317C103.595 25.0511 101.037 25.3054 98.8418 26.904L98.6059 26.6315C98.6966 26.3772 98.7873 26.1229 98.8599 25.8686C99.7308 22.6168 98.7329 19.5468 96.6465 18.9836C96.2352 18.8835 95.8059 18.8835 95.3946 18.9836C94.8502 18.0427 94.0882 17.2464 93.1727 16.6616C92.2571 16.0768 91.2148 15.7206 90.1332 15.6229C89.0139 15.3933 87.8598 15.3933 86.7405 15.6229C86.6715 15.2764 86.5744 14.9362 86.4502 14.6056C85.3979 11.5718 82.9486 9.68257 81.0073 10.3547C80.8328 10.4235 80.668 10.5151 80.5175 10.6272C79.6656 9.94155 78.6358 9.51398 77.5493 9.39489C76.4629 9.27581 75.365 9.47016 74.3852 9.95506C73.6672 10.2162 72.9893 10.577 72.3714 11.0269C72.3623 10.8938 72.3623 10.7603 72.3714 10.6272C72.2262 7.26648 70.2849 4.61423 68.1078 4.74139C67.5676 4.77979 67.0505 4.97555 66.6201 5.30454C65.6825 4.60418 64.565 4.18604 63.3985 4.09916C62.232 4.01229 61.0649 4.26028 60.0342 4.81406C58.9996 5.23271 58.0566 5.84981 57.2584 6.63066C55.9702 3.81492 53.4847 2.16181 51.616 2.99745C50.9267 3.4099 50.382 4.02621 50.0571 4.76148C49.7322 5.49675 49.6429 6.31481 49.8017 7.10298C49.8017 6.93949 49.6747 6.77599 49.584 6.6125C48.1507 3.77859 45.52 2.23447 43.6875 3.16094C43.1733 3.44791 42.7659 3.8941 42.5264 4.43257C41.6246 4.07926 40.6542 3.93652 39.6891 4.01522C38.7239 4.09392 37.7894 4.39197 36.9566 4.88672C35.9264 5.37239 35.0157 6.07948 34.2896 6.95765C32.8381 4.50523 30.5158 3.19727 28.8467 3.97842C27.1776 4.75956 26.4881 7.26648 27.2138 9.90056C25.2726 7.37547 22.4241 6.26734 20.7187 7.48447C19.358 8.44727 19.104 10.5364 19.9567 12.7163C17.7251 10.4637 14.786 9.7189 13.2439 11.1177C11.7017 12.5165 12.1009 15.3867 13.9877 17.8028L13.2802 17.6575C10.0689 17.167 7.2023 18.475 6.87573 20.5459C6.82692 20.9726 6.87142 21.4049 7.00613 21.8127C7.14085 22.2205 7.36255 22.5941 7.65587 22.9075C7.2167 22.8063 6.7609 22.8009 6.31948 22.8918C5.87806 22.9827 5.46136 23.1677 5.09773 23.4343C3.48302 24.7604 3.80959 27.8305 5.78716 30.3556C4.70727 31.5037 4.00447 32.9555 3.77331 34.5156C3.58901 35.4588 3.60188 36.43 3.81109 37.368C4.0203 38.306 4.42133 39.1904 4.98888 39.9654C4.39321 40.266 3.89179 40.7251 3.53971 41.2923C3.18764 41.8596 2.99853 42.513 2.99316 43.1808C3.13831 44.834 4.80745 46.0874 7.2023 46.4326C6.74934 46.6364 6.34975 46.9426 6.03495 47.3271C5.72014 47.7117 5.4987 48.1641 5.38802 48.6488C5.11588 50.8651 7.51073 52.9542 10.8853 53.481H11.5022C11.0566 54.0617 10.8374 54.7849 10.8853 55.5156C11.103 57.6955 14.0059 59.1488 17.3804 58.8945C17.0837 59.2274 16.862 59.6203 16.7305 60.0466C16.599 60.473 16.5608 60.9226 16.6184 61.3651C17.0176 63.4542 19.9386 64.635 23.1499 64.0355C23.638 63.9348 24.1173 63.7951 24.5831 63.6177C24.1399 64.3249 23.9279 65.153 23.9767 65.9865C24.0254 66.8201 24.3326 67.6176 24.8553 68.2682C26.1434 69.5217 28.4838 69.1583 30.6428 67.5779C31.2451 68.4985 32.093 69.2316 33.0903 69.694C34.0877 70.1564 35.1946 70.3296 36.2853 70.1938C37.392 70.1727 38.4835 69.9319 39.4965 69.4853C39.4965 69.7033 39.6054 69.9395 39.678 70.1756C40.7121 73.391 43.3065 75.4438 45.3022 74.7717C45.7524 74.5844 46.1543 74.2975 46.4779 73.9326C46.8016 73.5676 47.0385 73.1341 47.171 72.6644C47.3023 72.9264 47.4477 73.1811 47.6064 73.4274C49.4207 75.9888 52.0695 77.1514 53.7205 76.0433C54.1327 75.7591 54.4541 75.3617 54.6458 74.8988C54.7802 75.3052 55.0005 75.6779 55.2916 75.9913C55.5828 76.3048 55.938 76.5518 56.3331 76.7154C57.8208 77.2604 59.6351 76.2068 60.8507 74.2993C60.9378 74.601 61.0792 74.8842 61.2679 75.135C62.5561 76.7881 65.6767 76.5156 68.2348 74.5355C68.811 74.0802 69.329 73.5555 69.7769 72.9732C70.4845 75.9343 72.4802 78.0234 74.4941 77.7146C75.2315 77.5046 75.8941 77.0892 76.4048 76.5167C76.9156 75.9443 77.2533 75.2383 77.3788 74.481C77.6826 75.1148 78.2043 75.6178 78.8484 75.898C80.7715 76.6246 83.2571 74.808 84.2912 71.8288C84.5907 72.3714 85.0729 72.7898 85.6519 73.0096C87.6476 73.7725 90.2239 71.8833 91.4032 68.7769C91.6897 69.1798 92.0779 69.4995 92.528 69.7033C94.3423 70.4845 96.9912 68.7224 98.2249 65.7613C98.6997 64.6436 98.9107 63.4315 98.8418 62.2189C101.255 63 103.577 62.5459 104.285 60.9836C104.992 59.4213 104.121 57.5865 102.307 56.1514V56.0424C103.062 55.9404 103.8 55.7388 104.502 55.4429C107.804 54.0078 109.619 51.3737 108.857 49.4118Z" fill="#ECE2AC"/>
<path d="M87.2122 33.2621C87.3292 33.0386 87.4322 32.8081 87.5206 32.5718C88.6273 29.647 87.9923 26.6678 86.1055 25.9593C85.5849 25.8012 85.033 25.7766 84.5004 25.8876C83.9678 25.9987 83.4717 26.242 83.0575 26.5951C83.9102 24.0155 83.3477 21.4904 81.6605 20.782C81.2512 20.6391 80.8148 20.591 80.3843 20.6414C79.9538 20.6917 79.5403 20.8392 79.1749 21.0726C78.5327 19.5932 77.3614 18.4075 75.891 17.7482C75.105 17.3589 74.2582 17.107 73.3873 17.0034C73.5103 16.4823 73.4659 15.9355 73.2603 15.4411C72.4802 13.6245 69.5229 13.0432 66.6382 14.2422C66.0403 14.4964 65.4741 14.8195 64.9509 15.205C64.8032 14.6488 64.5901 14.1122 64.3159 13.6064C62.8282 10.8996 60.3064 9.50083 58.6009 10.4091C58.6094 10.3246 58.6094 10.2394 58.6009 10.1548C58.3015 9.49001 57.7547 8.96854 57.0769 8.70152C56.8654 8.33381 56.5751 8.01763 56.2268 7.77575C55.8786 7.53388 55.4811 7.37233 55.0631 7.30274C54.5102 7.28632 53.9625 7.41316 53.473 7.67096C52.9835 7.92875 52.5688 8.30877 52.2691 8.77419L51.8518 8.91952C50.874 9.32342 49.9814 9.90899 49.2211 10.6453C48.0055 7.97488 45.5925 6.4126 43.9052 7.15741C43.2378 7.54198 42.7053 8.12358 42.3806 8.82268C42.0558 9.52179 41.9547 10.3043 42.091 11.0631C42.091 10.8996 41.9639 10.7361 41.8914 10.5908C40.5307 7.92038 38.0451 6.44893 36.3215 7.3209C35.7168 7.66295 35.2633 8.22087 35.0515 8.88319C34.2247 8.61262 33.3505 8.5181 32.4851 8.60569C31.6196 8.69329 30.782 8.96106 30.026 9.39184C28.833 9.97469 27.8272 10.881 27.1231 12.0078C26.6627 11.2886 25.9851 10.7352 25.189 10.4281C24.3928 10.121 23.5196 10.0761 22.6963 10.3001C21.0453 11.0631 20.5191 13.5337 21.3537 16.0951C19.5394 13.5882 16.7454 12.4619 15.0763 13.6609C13.4071 14.8598 13.516 17.7664 15.2033 20.346C14.5746 19.9092 13.8276 19.6752 13.0624 19.6752C12.2972 19.6752 11.5503 19.9092 10.9216 20.346C9.37942 21.7266 9.86928 24.7603 12.0101 27.1401L12.3548 27.4853C9.45199 27.1583 6.91199 28.3572 6.65799 30.2465C6.42214 31.7543 7.69214 33.2621 9.65156 34.0977C8.38156 35.4783 8.76256 38.2396 10.6131 40.5103C11.2887 41.3425 12.1209 42.0338 13.0624 42.5449C12.9051 43.0059 12.7897 43.4802 12.7177 43.9619C12.2823 47.0501 13.5523 49.7932 15.548 50.0657C15.6748 50.0748 15.8021 50.0748 15.929 50.0657C16.1467 51.9731 18.6141 53.3174 21.5533 53.1539C21.4444 55.0977 23.6215 56.987 26.597 57.4593C27.1965 57.5566 27.805 57.5871 28.4112 57.5501C29.137 59.1669 31.55 60.2024 34.3077 59.9481C34.6615 59.9067 35.0128 59.8461 35.36 59.7664C35.8317 61.583 38.5168 62.6911 41.4559 62.128C42.0296 62.0215 42.5895 61.8508 43.1251 61.6193C43.0634 62.0661 43.1013 62.521 43.2362 62.9514C43.3711 63.3817 43.5996 63.7768 43.9052 64.1081C45.3748 65.4887 48.2958 64.7802 50.4366 62.5276L50.6362 62.2915C51.9141 63.2639 53.497 63.7471 55.0994 63.6539C56.5352 63.6562 57.9362 63.2118 59.1089 62.3823C60.2338 64.8166 62.3021 66.2699 64.0256 65.7067C65.7492 65.1436 66.5656 62.7638 66.0576 60.1116L66.2935 60.5294C67.9263 62.9455 70.5208 64.0536 72.081 63C72.4929 62.678 72.8134 62.2538 73.0108 61.7693C73.2081 61.2849 73.2754 60.7572 73.2059 60.2387C73.4148 60.4239 73.6542 60.5714 73.9135 60.6747C75.7278 61.3287 77.9593 59.6029 78.9753 56.8417C79.1032 56.4859 79.2062 56.1217 79.2838 55.7517C80.7127 55.6282 82.078 55.1044 83.2235 54.2402C84.3689 53.3759 85.2482 52.2063 85.7607 50.865C87.702 50.4109 88.8813 47.686 88.4096 44.5977C88.2532 43.6029 87.9084 42.6472 87.3936 41.782C87.889 41.1553 88.2866 40.4571 88.5729 39.711C89.6433 36.8045 89.0446 33.9524 87.2122 33.2621Z" fill="#FCFBE6"/>
<path d="M54.2286 46.1054C55.7344 40.6555 49.4933 34.2248 40.313 31.6815C31.1328 29.1382 22.4605 31.4453 20.9546 36.8588C19.4488 42.2723 25.6899 48.7395 34.8702 51.2827C44.0505 53.826 52.7227 51.5189 54.2286 46.1054Z" fill="white"/>
<path d="M0 22.2896C3.39271 13.2066 15.8387 4.12354 23.5857 1.61662C38.6442 1.07164 86.2147 -0.199989 109.601 19.3286C110.254 29.1746 109.837 29.7741 109.601 32.0448C104.938 33.2619 89.4442 35.5872 79.0483 49.7204C64.8243 43.9436 21.5355 30.3917 1.45143 34.9877C0.489857 28.9384 0 22.2896 0 22.2896Z" fill="#FDE471"/>
<path d="M79.1027 49.7567C81.261 46.8283 83.8061 44.2067 86.6683 41.9635C85.2713 39.5292 82.1689 36.8225 76.4358 33.7706C53.7028 21.672 10.8857 20.4367 0 22.2896C0 22.2896 0.489857 28.9384 1.45143 35.0059C21.5355 30.3917 64.8243 43.9436 79.1027 49.7567Z" fill="#FDD459"/>
<path d="M109.655 32.0811C109.891 29.774 110.308 29.1746 109.655 19.3649C95.4492 17.5483 80.3181 29.7014 76.4355 33.8977C79.3384 39.2386 79.1025 49.8839 79.1025 49.8839C89.4984 35.6235 104.992 33.2983 109.655 32.0811Z" fill="#FDBB42"/>
<path d="M95.3225 16.2405C99.6587 14.8962 84.9085 6.63067 70.7571 4.83223C56.6057 3.03378 44.704 5.21371 44.1416 9.70074C43.5792 14.1878 48.641 15.5502 60.96 22.744C82.0964 35.0606 69.723 24.0883 95.3225 16.2405Z" fill="#FFEE99"/>
<path d="M109.655 19.329C90.9319 3.63345 56.7326 1.39903 36.1042 1.38086C59.4904 1.39903 90.7142 4.43276 108.24 18.6023C108.661 22.2217 108.692 25.876 108.331 29.502L107.696 29.6655C101.836 31.0098 88.3012 34.1343 78.6673 46.5963C65.6952 41.4916 32.8022 31.2096 11.2304 31.2096C8.3746 31.1833 5.52179 31.4021 2.70328 31.8636C2.032 27.1404 1.63285 22.3627 1.524 21.1092C4.89857 12.3713 16.6914 3.96044 23.8941 1.59885L29.1737 1.45352C27.051 1.45352 25.1641 1.56252 23.7308 1.61702C15.8387 4.08761 3.39271 13.1888 0 22.29C0 22.29 0.489857 28.9388 1.45143 35.0063C21.5355 30.4103 64.8243 43.9622 79.1028 49.7753C89.4986 35.6421 104.993 33.3168 109.655 32.0997C109.891 29.7745 110.308 29.175 109.655 19.329Z" fill="#FDBB42"/>
<g style="mix-blend-mode:multiply">
<path d="M91.0042 29.738C90.9865 29.3831 90.8652 29.0412 90.6554 28.7547C90.4455 28.4681 90.1564 28.2495 89.8237 28.1258C89.491 28.0021 89.1294 27.9789 88.7836 28.0589C88.4379 28.1389 88.1232 28.3187 87.8784 28.576C87.6337 28.8333 87.4697 29.1568 87.4067 29.5065C87.3438 29.8562 87.3846 30.2167 87.5242 30.5434C87.6638 30.8701 87.896 31.1486 88.192 31.3445C88.4881 31.5403 88.8351 31.645 89.1899 31.6454C89.436 31.6457 89.6796 31.5959 89.9059 31.499C90.1321 31.4021 90.3363 31.2601 90.506 31.0816C90.6757 30.9032 90.8074 30.6921 90.8931 30.4611C90.9787 30.2301 91.0165 29.9841 91.0042 29.738Z" fill="#FDE471"/>
</g>
<g style="mix-blend-mode:multiply">
<path d="M57.2587 34.5158C57.2587 34.1785 57.1249 33.8551 56.8868 33.6166C56.6486 33.3781 56.3256 33.2441 55.9887 33.2441C55.6519 33.2441 55.3289 33.3781 55.0907 33.6166C54.8526 33.8551 54.7188 34.1785 54.7188 34.5158C54.7188 34.853 54.8526 35.1765 55.0907 35.4149C55.3289 35.6534 55.6519 35.7874 55.9887 35.7874C56.3256 35.7874 56.6486 35.6534 56.8868 35.4149C57.1249 35.1765 57.2587 34.853 57.2587 34.5158Z" fill="#FDE471"/>
</g>
<g style="mix-blend-mode:multiply">
<path d="M18.3785 25.9228C18.3785 25.5887 18.2795 25.2621 18.0941 24.9842C17.9087 24.7064 17.6452 24.4899 17.3369 24.362C17.0286 24.2341 16.6893 24.2007 16.362 24.2659C16.0347 24.331 15.7341 24.492 15.4981 24.7282C15.2621 24.9645 15.1014 25.2655 15.0363 25.5932C14.9712 25.921 15.0046 26.2607 15.1323 26.5694C15.2601 26.8781 15.4763 27.1419 15.7538 27.3276C16.0313 27.5132 16.3575 27.6123 16.6912 27.6123C16.9128 27.6123 17.1322 27.5686 17.3369 27.4837C17.5416 27.3988 17.7276 27.2743 17.8843 27.1175C18.041 26.9606 18.1652 26.7743 18.25 26.5694C18.3348 26.3644 18.3785 26.1447 18.3785 25.9228Z" fill="#FDE471"/>
</g>
<g style="mix-blend-mode:multiply">
<path d="M66.8203 33.553C66.8203 33.1398 66.6979 32.7359 66.4687 32.3923C66.2394 32.0488 65.9136 31.781 65.5323 31.6229C65.1511 31.4648 64.7316 31.4234 64.3268 31.504C63.9221 31.5846 63.5504 31.7836 63.2586 32.0758C62.9668 32.3679 62.7681 32.7402 62.6876 33.1454C62.607 33.5507 62.6484 33.9707 62.8063 34.3524C62.9642 34.7342 63.2316 35.0604 63.5747 35.29C63.9178 35.5195 64.3212 35.6421 64.7339 35.6421C65.0086 35.6445 65.281 35.5921 65.5352 35.488C65.7894 35.3839 66.0204 35.2301 66.2146 35.0356C66.4088 34.8411 66.5624 34.6098 66.6664 34.3553C66.7704 34.1007 66.8227 33.828 66.8203 33.553Z" fill="#FDE471"/>
</g>
<g style="mix-blend-mode:multiply">
<path d="M6.91261 27.3763C6.9162 27.0622 6.82622 26.7542 6.65417 26.4915C6.48212 26.2289 6.2358 26.0235 5.94665 25.9016C5.6575 25.7798 5.33864 25.7469 5.03078 25.8073C4.72291 25.8677 4.44 26.0186 4.21817 26.2407C3.99634 26.4629 3.84564 26.7461 3.78532 27.0544C3.72499 27.3626 3.75778 27.6819 3.87949 27.9714C4.0012 28.2609 4.20631 28.5076 4.46864 28.6799C4.73097 28.8521 5.03863 28.9422 5.35233 28.9386C5.76614 28.9386 6.163 28.774 6.45561 28.481C6.74822 28.1881 6.91261 27.7907 6.91261 27.3763Z" fill="#FDE471"/>
</g>
<g style="mix-blend-mode:multiply">
<path d="M13.5894 15.2959C13.5894 14.7509 13.0269 14.2059 12.1379 14.0424C11.2489 13.8789 10.4688 14.1877 10.3237 14.7145C10.1785 15.2414 10.8861 15.8227 11.7751 15.968C12.6641 16.1133 13.4805 15.8227 13.5894 15.2959Z" fill="#FDE471"/>
</g>
<g style="mix-blend-mode:multiply">
<path d="M27.4859 4.43251C27.4859 3.97836 27.0142 3.50604 26.2704 3.37888C25.5265 3.25171 24.8552 3.50604 24.7645 3.96019C24.6738 4.41434 25.2362 4.8685 25.9801 5.01383C26.7239 5.15915 27.3952 4.88666 27.4859 4.43251Z" fill="#FDE471"/>
</g>
<g style="mix-blend-mode:multiply">
<path d="M27.5776 12.8978C27.6683 12.4254 27.0877 11.9168 26.2894 11.7715C25.4911 11.6261 24.7473 11.8986 24.6566 12.3891C24.5658 12.8796 25.1646 13.3701 25.9628 13.5154C26.7611 13.6607 27.505 13.3882 27.5776 12.8978Z" fill="#FDE471"/>
</g>
<g style="mix-blend-mode:multiply">
<path d="M73.4237 17.0035C73.4237 16.6402 73.0427 16.2587 72.444 16.1497C71.8453 16.0407 71.2828 16.2587 71.2284 16.6221C71.174 16.9854 71.5913 17.3669 72.2081 17.4759C72.825 17.5849 73.3511 17.3669 73.4237 17.0035Z" fill="#FDE471"/>
</g>
<g style="mix-blend-mode:multiply">
<path d="M33.3824 6.17648C33.3824 5.90399 33.1103 5.61333 32.6385 5.54067C32.1668 5.468 31.7677 5.54067 31.7314 5.88582C31.6951 6.23098 32.0035 6.44897 32.4753 6.5398C32.947 6.63063 33.3461 6.44897 33.3824 6.17648Z" fill="#FDE471"/>
</g>
<g style="mix-blend-mode:multiply">
<path d="M63.8449 23.2528C63.8449 22.8713 63.4457 22.4535 62.7926 22.3445C62.1394 22.2355 61.577 22.4535 61.5044 22.8349C61.4319 23.2164 61.9036 23.6343 62.5567 23.7433C63.2099 23.8522 63.7723 23.6161 63.8449 23.2528Z" fill="#FDE471"/>
</g>
<g style="mix-blend-mode:multiply">
<path d="M89.9523 13.7152C89.9523 13.4245 89.662 13.1338 89.1903 13.043C88.7186 12.9522 88.3013 13.043 88.2469 13.4063C88.1924 13.7697 88.5372 13.9877 89.0089 14.0785C89.4806 14.1693 89.916 13.9877 89.9523 13.7152Z" fill="#FDE471"/>
</g>
<g style="mix-blend-mode:multiply">
<path d="M78.8127 11.7898C78.9034 11.2812 78.2866 10.7543 77.452 10.5909C76.6174 10.4274 75.8554 10.7362 75.7647 11.2448C75.674 11.7535 76.2909 12.2803 77.1254 12.4256C77.96 12.571 78.722 12.2985 78.8127 11.7898Z" fill="#FDE471"/>
</g>
<g style="mix-blend-mode:multiply">
<path d="M76.7263 25.8867C76.817 25.2872 76.1094 24.6696 75.1116 24.4879C74.1137 24.3063 73.2973 24.6514 73.134 25.2509C72.9707 25.8504 73.7509 26.468 74.7487 26.6497C75.7466 26.8314 76.6174 26.4862 76.7263 25.8867Z" fill="#FDE471"/>
</g>
<g style="mix-blend-mode:multiply">
<path d="M86.4144 19.4379C86.4144 18.9474 85.9063 18.4206 85.0718 18.2753C84.2372 18.1299 83.4934 18.4024 83.4026 18.9111C83.3119 19.4197 83.9106 19.9465 84.7452 20.0919C85.5798 20.2372 86.3236 19.9829 86.4144 19.4379Z" fill="#FDE471"/>
</g>
<g style="mix-blend-mode:multiply">
<path d="M74.7488 40.3108C74.7488 39.8796 74.6211 39.4582 74.3819 39.0997C74.1427 38.7412 73.8026 38.4618 73.4048 38.2968C73.007 38.1318 72.5693 38.0886 72.1469 38.1727C71.7246 38.2569 71.3367 38.4645 71.0322 38.7693C70.7277 39.0742 70.5204 39.4626 70.4364 39.8855C70.3524 40.3084 70.3955 40.7467 70.5603 41.145C70.725 41.5433 71.0041 41.8838 71.3621 42.1233C71.7201 42.3629 72.1411 42.4907 72.5717 42.4907C72.8582 42.4931 73.1424 42.4384 73.4077 42.3297C73.6729 42.221 73.9139 42.0605 74.1165 41.8576C74.3192 41.6547 74.4795 41.4134 74.588 41.1479C74.6966 40.8823 74.7512 40.5977 74.7488 40.3108Z" fill="#FDE471"/>
</g>
<g style="mix-blend-mode:multiply">
<path d="M106.026 25.5778C106.026 25.2545 105.931 24.9384 105.751 24.6695C105.572 24.4006 105.317 24.1911 105.018 24.0673C104.72 23.9436 104.392 23.9112 104.075 23.9743C103.758 24.0374 103.467 24.1931 103.239 24.4217C103.011 24.6504 102.855 24.9417 102.792 25.2589C102.729 25.576 102.761 25.9047 102.885 26.2035C103.009 26.5022 103.218 26.7576 103.486 26.9372C103.755 27.1169 104.071 27.2128 104.394 27.2128C104.827 27.2128 105.242 27.0405 105.548 26.7339C105.854 26.4273 106.026 26.0114 106.026 25.5778Z" fill="#FDE471"/>
</g>
<g style="mix-blend-mode:multiply">
<path d="M85.5614 39.13C85.5649 38.877 85.4931 38.6286 85.3549 38.4168C85.2167 38.2049 85.0186 38.0391 84.7858 37.9406C84.553 37.8421 84.2962 37.8154 84.0481 37.8639C83.8001 37.9124 83.5722 38.0339 83.3935 38.2128C83.2148 38.3917 83.0934 38.6199 83.045 38.8683C82.9966 39.1167 83.0233 39.3738 83.1216 39.6069C83.22 39.84 83.3856 40.0384 83.5972 40.1767C83.8088 40.3151 84.0568 40.387 84.3095 40.3835C84.4739 40.3835 84.6367 40.351 84.7886 40.288C84.9404 40.2251 85.0785 40.1327 85.1947 40.0163C85.3109 39.8999 85.4031 39.7618 85.4661 39.6097C85.529 39.4576 85.5614 39.2946 85.5614 39.13Z" fill="#FDE471"/>
</g>
<path d="M54.0292 0C44.5949 1.61678 29.5182 16.0225 26.1255 22.1081C25.8897 24.8149 23.4404 54.6799 31.0422 69.5761C32.403 71.1021 48.8585 77.4602 55.0815 76.9516C52.4326 71.1566 48.7134 39.9472 53.6301 25.9593C57.2586 20.6367 68.8882 8.19291 80.4996 5.97664C92.111 3.76038 54.0292 0 54.0292 0Z" fill="#030800"/>
<path d="M55.0088 14.0241C48.6769 24.7965 48.0056 25.4324 40.9662 23.6157C34.3078 21.9263 25.2727 23.1979 35.5234 13.4791C47.0622 2.76108 58.347 -0.27266 64.062 2.12526C66.8197 3.26973 60.5605 4.54135 55.0088 14.0241Z" fill="#113000"/>
<path d="M69.378 5.72239C69.5413 4.54159 65.7494 3.07014 60.8327 2.41616C55.916 1.76218 51.8883 2.19817 51.7613 3.37896C51.6343 4.55976 56.297 2.50699 60.5969 4.54159C67.9266 8.04765 69.2329 6.90319 69.378 5.72239Z" fill="white"/>
</g>
<defs>
<clipPath id="clip0_1203_16749">
<rect width="110" height="84" fill="white"/>
</clipPath>
</defs>
</svg>
