<svg width="662" height="647" viewBox="0 0 662 647" fill="none" xmlns="http://www.w3.org/2000/svg">
<path d="M535.911 486.349C539.23 482.689 320.333 279.593 47.0617 32.9206L35.2013 46.0939C308.479 292.873 532.54 490.013 535.911 486.349Z" fill="#B4703D"/>
<path d="M47.0617 32.9206L35.2013 46.0939C87.7688 93.6205 138.576 139.267 186.338 181.984L197.646 169.43C150.236 126.319 99.6824 80.4442 47.0617 32.9206Z" fill="#030800"/>
<path d="M530.21 477.954C530.813 477.279 313.731 278.946 45.2502 34.8929L42.8242 37.3274C311.518 281.369 529.608 478.629 530.21 477.954Z" fill="#FCFBE6"/>
<path d="M537.226 414.425C571.422 429.352 594.474 452.12 588.751 465.271L553.984 545.108C545.703 564.069 511.353 567.38 477.156 552.453C442.959 537.526 422.046 510.04 430.264 490.923L465.04 411.245C470.763 398.094 503.082 399.494 537.226 414.425Z" fill="#030800"/>
<g clip-path="url(#clip0_1203_15626)">
<g style="mix-blend-mode:multiply">
<path d="M375.109 599.375C375.354 598.733 375.725 598.148 376.2 597.652C373.751 596.46 373.005 593.524 374.707 589.79C375.481 588.017 376.567 586.399 377.914 585.012C376.38 584.368 375.071 583.282 374.153 581.892C373.684 581.033 373.391 580.089 373.29 579.115C373.19 578.142 373.285 577.158 373.57 576.221C373.855 575.285 374.323 574.415 374.948 573.662C375.573 572.91 376.342 572.29 377.209 571.839C373.303 570.688 371.778 568.137 373.467 565.826C375.4 564.062 377.662 562.699 380.124 561.816C382.586 560.933 385.198 560.547 387.81 560.681L388.225 560.129C387.891 559.861 387.519 559.647 387.23 559.371C386.367 558.643 385.708 557.703 385.318 556.643C384.927 555.583 384.819 554.439 385.003 553.325C385.187 552.21 385.658 551.162 386.369 550.285C387.079 549.408 388.006 548.731 389.057 548.32C390.003 547.809 391.007 547.411 392.047 547.136C394.42 542.974 398.149 539.756 402.61 538.022C405.216 536.713 407.953 535.684 410.775 534.953C410.765 534.416 410.823 533.88 410.945 533.358C411.608 530.776 412.968 528.428 414.875 526.57C416.783 524.711 419.164 523.415 421.759 522.823L423.036 522.579C426.917 518.928 431.867 516.625 437.156 516.009C438.938 515.696 440.745 515.543 442.554 515.55C442.498 515.372 442.463 515.188 442.45 515.002C442.032 512.509 442.537 509.948 443.871 507.802C445.205 505.656 447.276 504.072 449.694 503.347C450.908 502.901 452.188 502.657 453.481 502.626C457.791 498.766 463.229 496.402 468.988 495.886C471.475 495.467 474.009 495.4 476.515 495.685C477.446 493.175 478.995 490.941 481.019 489.19C483.042 487.439 485.474 486.228 488.089 485.669C489.417 485.295 490.837 485.45 492.054 486.101C493.27 486.752 494.188 487.849 494.616 489.163C494.572 488.934 494.748 488.616 494.879 488.307C495.958 485.769 497.645 483.537 499.791 481.807C501.936 480.077 504.474 478.903 507.181 478.389C508.367 478.243 509.57 478.441 510.646 478.961C514.639 476.356 519.221 474.8 523.972 474.436C526.419 474.136 528.899 474.24 531.313 474.744C532.441 472.45 534.08 470.446 536.104 468.886C538.128 467.327 540.483 466.254 542.986 465.75C543.869 465.519 544.797 465.519 545.68 465.753C546.563 465.986 547.37 466.444 548.024 467.082C548.679 467.72 549.157 468.516 549.413 469.394C549.669 470.272 549.694 471.201 549.486 472.091C551.069 469.613 553.171 467.509 555.646 465.926C558.121 464.343 560.911 463.318 563.822 462.922C564.637 462.765 565.479 462.83 566.261 463.11C567.042 463.389 567.735 463.874 568.267 464.512C568.798 465.151 569.149 465.92 569.283 466.741C569.417 467.561 569.329 468.402 569.029 469.177C570.847 466.81 573.14 464.85 575.759 463.421C578.379 461.993 581.267 461.129 584.24 460.884C588.564 461.245 589.162 465.393 586.019 470.254L587.657 469.421C595.099 465.779 602.578 464.829 604.368 467.283C605.116 468.23 604.802 469.568 603.713 471.054C605.66 469.981 607.839 469.404 610.061 469.372C614.824 469.555 615.64 473.852 611.901 479.062C613.222 479.191 614.503 479.589 615.666 480.231C616.828 480.873 617.848 481.745 618.662 482.796C619.537 483.99 619.992 485.44 619.957 486.921C619.922 488.401 619.397 489.828 618.466 490.978C622.039 490.867 624.5 491.63 624.867 493.312C625.234 494.995 621.817 498.913 616.49 501.489C619.007 501.294 620.925 501.687 621.744 502.763C623.625 505.199 619.004 510.246 611.434 513.959L609.998 514.612C611.351 515.017 612.229 515.655 612.466 516.652C613.039 519.669 606.881 524.345 598.693 527.04L598.464 527.083C600.346 527.53 601.495 528.353 601.547 529.622C601.664 532.726 595.282 536.971 587.327 539.148C586.049 539.391 584.817 539.625 583.676 539.842C586.576 541.422 587.419 543.866 585.393 546.146C581.416 549.413 576.329 551.009 571.202 550.599C568.35 554.865 564.042 557.941 559.085 559.25C556.508 560.224 553.831 560.909 551.103 561.29C551.098 561.644 551.07 561.997 551.02 562.348C550.399 565.07 549.029 567.562 547.065 569.543C545.101 571.524 542.622 572.914 539.909 573.555C537.976 574.01 535.943 573.682 534.25 572.643L533.618 574.042C532.183 576.551 530.184 578.691 527.779 580.291C525.374 581.891 522.63 582.908 519.764 583.261C518.797 583.305 517.837 583.077 516.992 582.604C516.798 583.458 516.425 584.259 515.896 584.956C515.368 585.653 514.697 586.229 513.929 586.645C512.128 587.689 510.12 588.325 508.046 588.507C505.973 588.688 503.885 588.412 501.929 587.697C501.853 588.227 501.658 588.733 501.36 589.178C499.114 592.542 491.556 595.07 484.415 594.818C482.899 594.783 481.39 594.594 479.911 594.255C479.657 596.693 478.681 598.999 477.108 600.876C475.535 602.754 473.437 604.117 471.083 604.79C469.614 605.311 468.029 605.413 466.506 605.084C464.982 604.755 463.58 604.009 462.455 602.928C461.867 604.259 460.895 605.384 459.664 606.158C457.326 607.499 454.672 608.186 451.979 608.149C449.285 608.112 446.651 607.351 444.351 605.947V605.947C443.752 607.114 442.841 608.091 441.719 608.768C439.289 610.161 436.531 610.878 433.731 610.845C430.932 610.811 428.192 610.029 425.795 608.578V608.578C425.229 609.459 424.487 610.213 423.615 610.792C421.25 612.183 418.562 612.928 415.82 612.951C413.078 612.974 410.377 612.275 407.989 610.924C407.197 610.491 406.499 609.904 405.935 609.199C405.371 608.493 404.952 607.683 404.703 606.814C399.36 610.056 393.552 611.588 391.168 610.242C388.785 608.896 389.844 605.758 393.45 602.088C391.629 602.603 389.766 602.958 387.883 603.148C379.77 604.502 374.139 602.732 375.109 599.375Z" fill="#B8B5AA"/>
</g>
<path d="M357.511 536.327C357.732 535.4 358.147 534.53 358.729 533.775C357.413 531.658 356.6 529.267 356.35 526.786C356.1 524.305 356.421 521.8 357.288 519.463C358.02 517.019 359.187 514.727 360.732 512.698C358.982 510.521 357.685 508.013 356.92 505.325C354.71 498.168 356.325 491.231 360.456 488.835C358.582 487.465 357.208 485.518 356.546 483.291C355.884 481.064 355.971 478.681 356.792 476.509C359.198 472.499 365.7 471.877 372.031 474.84L372.477 473.95C372.127 473.353 371.786 472.803 371.474 472.152C367.73 464.387 368.773 456.185 373.752 453.77C374.739 453.321 375.818 453.115 376.901 453.17C377.839 450.635 379.354 448.353 381.326 446.506C383.298 444.659 385.673 443.298 388.262 442.531C390.99 441.437 393.903 440.883 396.841 440.899C396.856 439.994 396.938 439.092 397.086 438.2C398.283 430.063 403.496 424.146 408.745 424.899C409.209 425.02 409.664 425.17 410.108 425.351C411.888 423.231 414.229 421.658 416.863 420.814C419.497 419.969 422.315 419.887 424.994 420.576C426.939 420.887 428.832 421.467 430.617 422.3L430.444 421.386C429.331 412.789 432.947 405.187 438.547 404.547C439.917 404.356 441.313 404.586 442.55 405.206C444.559 402.996 447.152 401.399 450.029 400.6C452.906 399.801 455.949 399.833 458.809 400.691C461.654 401.237 464.366 402.329 466.796 403.907C468.691 396.206 474.108 390.866 479.207 392.074C481.131 392.793 482.787 394.086 483.954 395.778C485.121 397.47 485.741 399.479 485.732 401.535C485.654 401.124 485.895 400.652 486.045 400.197C488.251 392.389 494.185 387.282 499.182 388.699C500.625 389.17 501.878 390.094 502.756 391.334C504.837 389.989 507.196 389.136 509.655 388.84C512.114 388.545 514.609 388.814 516.948 389.628C519.776 390.465 522.389 391.907 524.607 393.854C527.04 386.997 532.303 382.586 536.874 383.752C541.446 384.919 544.149 390.94 543.445 397.941C547.168 390.65 553.757 386.507 558.674 388.744C560.695 390.084 562.231 392.04 563.056 394.322C563.881 396.605 563.951 399.092 563.256 401.417C567.793 394.681 574.838 391.446 579.377 394.181C583.915 396.917 584.291 404.375 580.708 411.403C581.254 411.107 581.823 410.856 582.41 410.653C590.253 407.882 598.088 409.801 599.862 414.909C600.254 415.942 600.417 417.048 600.341 418.15C600.264 419.252 599.95 420.324 599.419 421.292C600.468 420.813 601.61 420.569 602.764 420.578C603.918 420.588 605.055 420.85 606.097 421.348C610.792 423.911 611.437 431.792 607.669 439.092C610.926 441.554 613.341 444.966 614.583 448.858C615.486 451.146 615.912 453.594 615.834 456.052C615.756 458.511 615.175 460.927 614.129 463.152C615.771 463.623 617.251 464.538 618.408 465.797C619.564 467.055 620.352 468.609 620.685 470.287C621.11 474.516 617.51 478.468 611.66 480.529C612.895 480.811 614.046 481.38 615.021 482.19C615.996 483 616.768 484.028 617.273 485.191C619.156 490.373 614.165 496.959 606.156 499.856L604.605 500.151C605.969 501.363 606.842 503.034 607.057 504.847C607.596 510.427 600.989 515.473 592.379 516.449C593.282 517.156 594.023 518.049 594.551 519.068C595.079 520.087 595.382 521.208 595.439 522.354C595.47 527.747 588.687 532.116 580.323 532.145C579.046 532.155 577.771 532.032 576.519 531.78C577.944 533.412 578.825 535.449 579.04 537.607C579.255 539.765 578.792 541.936 577.717 543.818C575.021 547.551 569.006 547.748 562.821 544.805C561.711 547.365 559.914 549.566 557.629 551.163C555.345 552.76 552.662 553.691 549.88 553.851C547.101 554.32 544.256 554.233 541.51 553.597C541.623 554.191 541.462 554.837 541.383 555.42C540.318 564.005 534.773 570.412 529.432 569.676C528.196 569.46 527.027 568.96 526.016 568.216C525.006 567.471 524.18 566.503 523.605 565.386C523.362 566.095 523.164 566.796 522.875 567.514C519.763 574.784 513.384 578.792 508.745 577.023C507.565 576.517 506.564 575.668 505.871 574.586C505.764 575.709 505.41 576.795 504.834 577.764C504.257 578.734 503.473 579.563 502.538 580.193C499.011 582.285 493.99 580.493 490.021 576.276C489.935 577.075 489.716 577.853 489.371 578.578C486.92 583.354 478.941 584.162 471.56 580.405C469.88 579.538 468.311 578.468 466.889 577.221C466.57 585.001 462.502 591.221 457.335 591.399C455.291 591.203 453.351 590.406 451.758 589.108C450.165 587.81 448.991 586.069 448.384 584.105C447.952 585.844 446.893 587.361 445.41 588.364C440.92 591.113 433.8 587.732 429.502 580.783C428.982 582.288 427.98 583.577 426.652 584.451C421.997 587.326 414.56 583.769 410.109 576.518C409.585 577.671 408.761 578.662 407.723 579.387C403.267 582.319 396.028 579.055 391.51 572.196C389.801 569.585 388.718 566.614 388.349 563.515C382.652 566.635 376.54 566.567 374.059 562.966C371.579 559.366 372.445 554.465 376.314 549.94L376.262 549.666C374.314 549.783 372.36 549.629 370.454 549.208C362.18 547.468 356.358 541.709 357.511 536.327Z" fill="#ECE2AC"/>
<path d="M404.056 485.368C403.669 484.826 403.292 484.33 402.942 483.733C398.715 476.913 398.898 469.159 403.342 466.419C404.571 465.77 405.945 465.447 407.334 465.481C408.723 465.515 410.08 465.905 411.276 466.614C407.936 460.477 408.144 453.855 412.013 451.319C412.975 450.752 414.054 450.412 415.168 450.323C416.281 450.234 417.4 450.399 418.44 450.806C419.349 446.777 421.729 443.233 425.112 440.87C426.908 439.522 428.916 438.483 431.054 437.798C430.496 436.545 430.346 435.148 430.627 433.806C431.721 428.862 438.882 425.984 446.711 427.62C448.336 427.973 449.915 428.515 451.415 429.235C451.528 427.772 451.792 426.325 452.203 424.917C454.45 417.575 460.116 412.803 464.885 414.264C464.842 414.035 464.807 413.852 464.764 413.624C465.213 411.814 466.336 410.245 467.903 409.238C468.254 408.208 468.831 407.27 469.592 406.494C470.353 405.718 471.279 405.124 472.3 404.754C473.683 404.457 475.119 404.519 476.472 404.933C477.824 405.346 479.049 406.099 480.031 407.119L481.624 407.29C484.298 407.893 486.827 409.021 489.063 410.61C490.845 403.309 496.177 398.269 500.822 399.327C502.679 399.968 504.293 401.168 505.443 402.764C506.592 404.36 507.221 406.272 507.243 408.239C507.165 407.828 507.406 407.356 507.519 406.956C509.577 399.366 515.215 394.693 519.932 395.88C520.766 396.14 521.54 396.565 522.207 397.129C522.874 397.694 523.423 398.386 523.819 399.165C525.759 398.105 527.897 397.458 530.099 397.268C532.301 397.077 534.518 397.346 536.612 398.057C539.92 398.931 542.924 400.703 545.291 403.178C546.101 401.146 547.543 399.43 549.403 398.282C551.263 397.135 553.443 396.618 555.619 396.808C560.128 397.892 562.631 403.856 561.71 410.709C565.076 403.533 571.611 399.353 576.337 401.579C581.063 403.806 582.269 411.154 579.257 418.451C580.637 417.063 582.403 416.124 584.325 415.759C586.247 415.393 588.234 415.617 590.027 416.402C594.565 419.138 594.783 427.005 590.535 434.017C590.322 434.389 590.045 434.679 589.832 435.051C596.986 432.884 603.94 434.639 605.481 439.271C606.749 442.961 604.32 447.354 599.791 450.394C603.599 453.269 604.006 460.39 600.399 467.043C599.122 469.451 597.369 471.573 595.247 473.28C595.858 474.367 596.375 475.505 596.791 476.68C599.362 484.242 597.478 491.752 592.597 493.438C592.288 493.544 591.965 493.606 591.639 493.621C592.011 498.57 586.438 503.087 578.976 504.129C580.169 508.921 575.596 514.717 568.346 517.375C566.857 517.812 565.328 518.103 563.782 518.244C562.729 522.659 557.155 526.419 550.097 527.099C549.191 527.18 548.281 527.21 547.372 527.192C547.007 531.997 540.82 536.016 533.167 536.051C531.655 536.017 530.15 535.844 528.671 535.534C529.06 536.625 529.192 537.791 529.058 538.942C528.924 540.093 528.527 541.197 527.897 542.169C524.915 546.383 517.229 545.999 510.759 541.31L510.145 540.811C507.41 543.89 503.652 545.867 499.569 546.376C496.01 547.135 492.304 546.8 488.937 545.415C487.216 552.041 482.754 556.679 478.149 556.087C473.545 555.495 470.355 549.899 470.365 542.982L469.972 544.146C467.019 551.007 461.022 555.037 456.594 553.133C455.405 552.52 454.396 551.606 453.668 550.481C452.94 549.357 452.519 548.062 452.446 546.724C452.002 547.303 451.453 547.792 450.829 548.168C446.578 550.682 440.149 547.454 436.311 540.938C435.819 540.104 435.386 539.237 435.014 538.343C431.261 538.815 427.455 538.099 424.128 536.295C420.811 534.673 418.05 532.099 416.199 528.9C411.145 528.678 406.877 522.387 406.597 514.436C406.47 511.785 406.866 509.135 407.764 506.637C406.199 505.317 404.862 503.747 403.808 501.991C399.633 495.445 399.777 487.982 404.056 485.368Z" fill="#FCFBE6"/>
<path d="M493.156 501.895C486.765 488.904 499.391 469.737 521.267 458.943C543.144 448.15 566.068 449.85 572.534 462.732C578.999 475.615 566.336 494.837 544.414 505.638C522.492 516.44 499.53 514.795 493.156 501.895Z" fill="white"/>
<path d="M626.687 422.214C608.361 405.385 542.656 355.186 485.26 372.407C427.865 389.627 339.296 443.137 345.185 540.142C349.413 609.475 365.273 572.975 402.733 544.393C440.192 515.812 527.5 451.176 590.258 443.022C653.016 434.869 626.687 422.214 626.687 422.214Z" fill="#E61300"/>
<path d="M357.616 572.49C361.906 571.674 368.974 565.072 377.128 557.459C384.336 550.51 391.894 543.935 399.771 537.758C476.362 479.188 537.67 445.216 581.799 436.818C584.263 436.349 586.727 435.88 589.189 435.648C594.955 434.883 600.237 434.067 604.801 433.199C626.478 429.074 627.848 424.835 627.839 424.789C627.024 423.503 625.844 422.491 624.45 421.882L623.979 421.64L623.572 421.244C620.681 418.716 554.274 358.847 493.534 370.406C490.882 370.91 488.257 371.551 485.672 372.328C470.816 376.766 341.09 419.211 348.192 536.303C349.47 557.228 351.944 569.26 355.552 572.078C355.838 572.308 356.174 572.466 356.534 572.538C356.893 572.609 357.265 572.593 357.616 572.49Z" fill="#F4493A"/>
<path d="M485.26 372.407C542.655 355.186 608.36 405.385 626.687 422.214C627.26 422.494 627.811 422.817 628.336 423.179C620.453 424.354 612.499 424.981 604.53 425.057C543.91 425.795 458.588 464.527 420.238 490.91C381.888 517.293 348.259 524.213 351.326 489.816C371.945 424.09 438.919 386.34 485.26 372.407Z" fill="#FF685A"/>
<g style="mix-blend-mode:color-dodge" opacity="0.3">
<g style="mix-blend-mode:color-dodge">
<path d="M505.439 380.312C499.564 377.262 493.322 374.52 487.106 371.914C489.114 371.532 491.076 371.158 493.084 370.776C530.245 387.294 563.185 412.033 589.428 443.133L586.097 443.767C563.605 417.544 536.203 395.986 505.439 380.312V380.312Z" fill="white"/>
</g>
<g style="mix-blend-mode:color-dodge">
<path d="M529.465 463.021C519.977 453.89 509.8 445.503 499.027 437.936C490.915 432.124 482.428 426.857 473.621 422.169C456.84 413.935 439.283 407.392 421.21 402.639C424.024 400.777 426.81 399.016 429.66 397.337C436.964 399.398 444.118 401.96 451.07 405.007C460.348 408.431 469.381 412.487 478.105 417.149C486.775 421.787 495.094 427.058 502.992 432.919C513.672 440.629 523.651 449.268 532.813 458.737L534.536 460.588L529.548 462.958L529.465 463.021Z" fill="white"/>
</g>
<g style="mix-blend-mode:color-dodge">
<path d="M553.515 452.714C537.441 436.492 519.569 422.16 500.248 409.999C489.873 403.402 479.044 397.55 467.843 392.486C461.999 390.094 456.015 387.965 449.975 386.036C453.643 384.438 457.485 382.76 461.18 381.299C464.03 382.367 466.918 383.38 469.669 384.42C481.116 389.351 492.164 395.165 502.713 401.811C523.954 415.159 543.115 431.572 559.576 450.519L553.515 452.714Z" fill="white"/>
</g>
<g style="mix-blend-mode:color-dodge">
<path d="M539.592 372.913C551.322 376.128 562.695 380.533 573.532 386.061C592.28 400.499 609.258 417.107 624.111 435.539C622.08 436.361 620.005 437.072 617.896 437.669L615.932 435.296C593.202 411.374 567.553 390.415 539.592 372.913V372.913Z" fill="white"/>
</g>
<g style="mix-blend-mode:color-dodge">
<path d="M345.617 517.518C359.73 517.659 373.717 520.185 386.991 524.989C395.78 528.342 404.303 532.356 412.487 536.997L410.084 538.78C390.877 529.269 368.638 526.445 345.045 526.956C345.103 523.773 345.314 520.654 345.617 517.518Z" fill="white"/>
</g>
<g style="mix-blend-mode:color-dodge">
<path d="M346.888 507.52C347.804 502.179 349.044 496.898 350.599 491.707C382.494 492.836 412.466 500.771 437.102 518.957L434.066 521.145C409.033 507.345 378.79 504.954 346.888 507.52Z" fill="white"/>
</g>
<g style="mix-blend-mode:color-dodge">
<path d="M345.93 550.041C345.678 548.716 345.7 547.338 345.56 545.849C360.321 547.128 374.811 550.595 388.556 556.137L386.102 558.404C373.221 553.558 359.671 550.738 345.93 550.041Z" fill="white"/>
</g>
<g style="mix-blend-mode:color-dodge">
<path d="M479.583 453.57C453.767 437.593 424.88 427.244 394.805 423.197C398.352 419.965 402.014 417.09 405.67 413.931C439.001 418.264 470.32 432.334 495.72 454.383C501.857 459.568 507.543 465.267 512.714 471.418L507.394 474.278C498.696 466.636 489.396 459.711 479.583 453.57V453.57Z" fill="white"/>
</g>
<g style="mix-blend-mode:color-dodge">
<path d="M357.145 473.886C358.587 470.77 360.1 467.783 361.713 464.824C399.813 464.014 435.897 473.013 465.565 499.523L459.139 503.777C428.528 482.513 393.667 474.229 357.145 473.886Z" fill="white"/>
</g>
<g style="mix-blend-mode:color-dodge">
<path d="M373.131 447.26C374.755 445.104 376.424 442.939 378.157 440.857C418.349 444.101 456.509 458.056 486.506 486.54L482.95 488.732C452.062 463.022 413.482 450.094 373.131 447.26Z" fill="white"/>
</g>
</g>
<path d="M422.749 410.254C420.611 404.221 439.082 392.181 464.046 383.453C489.01 374.724 510.879 372.362 513.018 378.396C515.156 384.43 492.816 385.555 467.87 394.375C442.923 403.195 424.888 416.288 422.749 410.254Z" fill="white"/>
<path d="M357.519 515.206C351.918 512.104 355.348 495.302 365.107 477.722C374.867 460.142 387.341 448.391 392.942 451.493C398.543 454.595 377.369 463.36 375.332 483.259C371.526 517.75 363.083 518.362 357.519 515.206Z" fill="white"/>
</g>
<g style="mix-blend-mode:color-dodge" opacity="0.3">
<path d="M541.304 545.55C544.939 547.538 557.284 521.08 563.691 509.655C570.097 498.23 578.271 484.033 574.74 481.985C571.209 479.938 569.32 497.685 561.151 509.102C548.137 527.418 537.667 543.508 541.304 545.55Z" fill="white"/>
</g>
<path d="M515.19 504.295C518.118 500.336 280.211 320.008 -16.0911 101.515L-26.6059 115.843C269.75 334.333 512.209 508.258 515.19 504.295Z" fill="#B4703D"/>
<path d="M-16.0913 101.515L-26.6061 115.843C30.4613 157.932 85.5117 198.317 137.229 236.375L147.144 222.776C95.8285 184.267 40.9229 143.608 -16.0913 101.515Z" fill="#030800"/>
<path d="M508.724 496.531C509.268 495.752 273.586 319.898 -17.6806 103.636L-19.6128 106.31C271.654 322.572 508.178 497.257 508.724 496.531Z" fill="#FCFBE6"/>
<defs>
<clipPath id="clip0_1203_15626">
<rect width="304.739" height="226.15" fill="white" transform="matrix(-0.982371 0.18694 0.186545 0.982446 616.748 346.958)"/>
</clipPath>
</defs>
</svg>
