<svg width="209" height="280" viewBox="0 0 209 280" fill="none" xmlns="http://www.w3.org/2000/svg">
<g clip-path="url(#clip0_1203_15583)">
<g style="mix-blend-mode:multiply">
<path d="M205.574 248.521C206.699 229.029 168.815 210.61 120.995 207.978C73.1743 205.347 33.528 219.283 32.4511 239.116C31.3743 258.949 69.2097 277.028 117.03 279.659C164.85 282.291 204.546 268.452 205.574 248.521Z" fill="#B8B5AA"/>
</g>
<path d="M36.1709 236.436C36.1709 250.324 66.7622 269.377 104.695 269.377C142.629 269.377 173.22 250.324 173.22 236.436C173.22 222.548 142.629 169.871 104.695 169.871C66.7622 169.871 36.1709 222.499 36.1709 236.436Z" fill="#9C5723"/>
<path d="M209 38.5453C209 23.1467 161.914 0.584961 104.5 0.584961C47.0862 0.584961 0 23.1467 0 38.5453C0 74.459 0 237.411 104.5 237.411C209 237.411 209 74.459 209 38.5453Z" fill="#B4703D"/>
<g style="mix-blend-mode:screen" opacity="0.5">
<path d="M21.145 38.9839C15.1246 53.3103 16.8378 43.1746 13.6073 57.4036C4.89489 96.3873 31.6684 207.832 66.0286 217.821C135.189 237.849 124.177 64.6643 119.037 29.9689C118.058 23.3904 127.945 13.4983 125.302 8.3817C118.336 7.33576 111.301 6.8145 104.256 6.82235C68.8185 6.82235 37.8356 19.7844 21.145 38.9839Z" fill="#B4703D"/>
</g>
<path d="M209 38.5451C209 17.2503 162.207 0 104.5 0C46.7925 0 0 17.2503 0 38.5451C0 59.8399 46.7925 77.0901 104.5 77.0901C162.207 77.0901 209 59.8399 209 38.5451Z" fill="#E6BE8A"/>
<path d="M104.5 68.2218C53.8411 68.2218 10.7686 54.0415 10.7686 37.3272C10.7686 20.613 53.8411 6.48145 104.5 6.48145C155.16 6.48145 198.232 20.613 198.232 37.3272C198.232 54.0415 155.306 68.2218 104.5 68.2218Z" fill="#B4703D"/>
<path d="M104.5 68.2216C141.748 68.2216 174.787 60.6198 189.716 49.948C186.583 35.5728 148.846 23.7803 104.5 23.7803C60.1552 23.7803 22.4177 35.5241 19.2852 49.8993C34.2627 60.5711 67.2524 68.2216 104.5 68.2216Z" fill="#ECE2AC"/>
<path style="mix-blend-mode:screen" opacity="0.6" d="M33.1367 57.0136C56.0777 64.8974 80.2355 68.6914 104.5 68.2214C138.762 68.2214 168.962 61.8378 185.408 52.628C174.395 39.8121 144.685 30.3586 110.765 30.3586C73.0278 30.3098 40.4786 42.0049 33.1367 57.0136Z" fill="url(#paint0_linear_1203_15583)"/>
<path d="M19.2361 54.1875C18.4529 56.6728 28.2911 61.8868 41.2129 65.9314C54.1347 69.9759 65.1965 71.1942 65.9796 68.7577C66.7628 66.3212 55.5052 65.4928 42.5834 61.497C29.6616 57.5012 19.9703 51.7511 19.2361 54.1875Z" fill="white"/>
<path d="M31.1297 99.2619C29.3676 88.6389 25.5988 80.4523 22.5152 80.9396C19.4315 81.4269 18.2568 90.4419 19.921 101.016C21.5852 111.591 25.5009 119.777 28.5845 119.29C31.6681 118.802 32.8428 109.836 31.1297 99.2619Z" fill="white"/>
<path d="M36.1224 134.055C34.1156 129.913 31.2278 127.33 29.1721 128.207C27.1163 129.084 27.459 133.08 29.1721 137.271C30.8852 141.461 34.0667 143.995 36.1714 143.118C38.2761 142.241 38.1292 138.148 36.1224 134.055Z" fill="white"/>
<path d="M52.6656 240.335C48.8478 237.801 44.8342 237.07 43.7085 238.775C42.5827 240.481 44.6874 243.648 48.6031 246.474C52.5188 249.301 56.3855 249.739 57.5602 248.034C58.7349 246.328 56.4345 242.917 52.6656 240.335Z" fill="white"/>
<path d="M114.191 59.7914H112.576L113.31 59.499L114.191 59.7914Z" fill="#93B010"/>
<path d="M130.442 41.9561L129.561 41.4688L128.288 40.4942C126.563 38.4278 124.364 36.8047 121.876 35.7616C119.389 34.7185 116.686 34.2859 113.996 34.5005C110.611 34.4636 107.263 35.197 104.207 36.6446H102.934C101.939 36.5942 100.943 36.5942 99.9482 36.6446C103.851 33.323 108.865 31.5836 113.996 31.7716C122.659 31.7716 129.756 35.8162 130.393 40.9328C130.393 41.1764 130.393 41.4201 130.393 41.6637L130.442 41.9561Z" fill="#ADCC21"/>
<path d="M112.576 36.304C111.274 36.2968 109.976 36.444 108.709 36.7425C107.845 36.6905 106.979 36.6905 106.115 36.7425H104.206C107.263 35.2949 110.611 34.5616 113.995 34.5984C116.686 34.3839 119.388 34.8164 121.876 35.8595C124.363 36.9027 126.562 38.5258 128.288 40.5922C125.438 38.89 122.209 37.9188 118.89 37.7659C116.927 36.7985 114.766 36.2981 112.576 36.304Z" fill="#93B010"/>
<path d="M132.399 46.7315C132.399 51.6044 125.596 55.8926 117.177 55.8926C115.665 55.8987 114.156 55.7517 112.674 55.4541C113.908 54.7051 114.987 53.7294 115.855 52.579C117.459 53.0071 119.147 53.0071 120.75 52.579C121.584 52.4657 122.375 52.14 123.046 51.6335C123.717 51.127 124.245 50.4567 124.58 49.6875C124.914 48.9183 125.044 48.0762 124.956 47.2425C124.868 46.4088 124.566 45.6118 124.078 44.9285C124.098 44.7178 124.098 44.5057 124.078 44.295C124.056 43.5633 123.868 42.8461 123.529 42.1965C123.19 41.5469 122.709 40.9817 122.12 40.5428C121.364 39.2011 120.173 38.1536 118.743 37.5703C122.062 37.7233 125.292 38.6945 128.141 40.3966L129.413 41.3712C130.291 41.9764 131.017 42.7747 131.535 43.7043C132.053 44.6339 132.348 45.6697 132.399 46.7315Z" fill="#93B010"/>
<path d="M124.127 45.0264C124.615 45.7097 124.917 46.5067 125.005 47.3404C125.093 48.1741 124.963 49.0162 124.629 49.7854C124.294 50.5546 123.766 51.2249 123.095 51.7314C122.424 52.2379 121.633 52.5636 120.799 52.6769C119.196 53.105 117.508 53.105 115.904 52.6769C116.317 52.0741 116.647 51.4184 116.883 50.7277C118.513 50.5715 120.064 49.9505 121.349 48.9393C122.634 47.9281 123.598 46.5695 124.127 45.0264Z" fill="#799400"/>
<path d="M96.4235 40.0558L95.2488 40.3969C94.5193 40.6938 93.8726 41.1617 93.3637 41.7608C92.8548 42.3598 92.4987 43.0724 92.3257 43.8378C92.1527 44.6033 92.1679 45.399 92.3701 46.1574C92.5722 46.9157 92.9553 47.6143 93.4868 48.1936C94.7851 49.6655 96.4823 50.7334 98.3748 51.2693C100.267 51.8051 102.275 51.7862 104.157 51.2149C104.65 51.0247 105.112 50.7619 105.528 50.4352H106.996C107.566 50.485 108.139 50.485 108.709 50.4352C109.875 50.7601 111.073 50.9562 112.282 51.02C108.68 53.7618 104.234 55.1742 99.7029 55.0158C91.8715 55.0158 85.3617 51.4098 84.5786 46.8292C84.5545 46.5048 84.5545 46.179 84.5786 45.8546C84.7768 44.3278 85.3866 42.8828 86.3431 41.6731C87.2997 40.4634 88.5673 39.5341 90.0116 38.9838C93.0687 37.543 96.4191 36.8259 99.8008 36.8884H100.046C101.04 36.838 102.037 36.838 103.031 36.8884C100.545 37.2118 98.2282 38.3222 96.4235 40.0558Z" fill="#93B010"/>
<path d="M99.0673 48.1935C100.981 49.5029 103.212 50.277 105.528 50.4351C105.113 50.7618 104.651 51.0246 104.158 51.2147C102.276 51.7861 100.268 51.805 98.3755 51.2691C96.483 50.7332 94.7858 49.6654 93.4875 48.1935C92.956 47.6141 92.5729 46.9156 92.3708 46.1572C92.1686 45.3989 92.1534 44.6032 92.3264 43.8377C92.4994 43.0722 92.8555 42.3597 93.3644 41.7606C93.8733 41.1615 94.52 40.6937 95.2495 40.3968L96.4242 40.0557C95.6235 40.9046 95.1547 42.011 95.1027 43.1744C95.2376 44.2925 95.6788 45.3521 96.3781 46.2374C97.0773 47.1226 98.0077 47.7993 99.0673 48.1935Z" fill="#799400"/>
<path d="M114.583 48.4374C119.233 47.8526 122.757 45.3674 122.757 42.4436C122.739 41.8126 122.572 41.1947 122.268 40.6406C122.856 41.0795 123.338 41.6447 123.677 42.2943C124.016 42.9439 124.203 43.6611 124.226 44.3928C124.246 44.6035 124.246 44.8156 124.226 45.0263C123.678 46.5583 122.699 47.9011 121.406 48.8947C120.113 49.8883 118.56 50.4907 116.933 50.6302C115.739 50.8641 114.527 50.9945 113.311 51.02H112.381C111.172 50.9562 109.973 50.7601 108.808 50.4353C110.871 50.2645 112.858 49.5773 114.583 48.4374Z" fill="#ADCC21"/>
<path d="M122.757 42.4436C122.757 45.3674 119.233 47.8526 114.583 48.4374C115.33 48.0433 115.961 47.4638 116.415 46.7551C116.87 46.0463 117.132 45.2325 117.178 44.3928C117.201 44.1334 117.201 43.8725 117.178 43.6131C117.2 43.4679 117.2 43.3199 117.178 43.1746C117.178 40.0559 113.604 37.4732 108.759 36.7423C110.01 36.4476 111.291 36.3004 112.577 36.3037C114.759 36.2675 116.92 36.7345 118.891 37.6681C120.321 38.2514 121.511 39.299 122.268 40.6406C122.572 41.1947 122.74 41.8126 122.757 42.4436Z" fill="#93B010"/>
<path d="M108.709 36.7419C113.604 37.4728 117.128 40.0555 117.128 43.1742C117.151 43.3195 117.151 43.4675 117.128 43.6127C116.541 40.5915 112.233 38.2525 107.094 38.2525C101.955 38.2525 96.8644 40.9814 96.8644 44.3924C96.9182 45.162 97.1549 45.9079 97.5548 46.5687C97.9547 47.2295 98.5065 47.7863 99.1648 48.1933C98.1251 47.8108 97.2082 47.1563 96.5105 46.2988C95.8128 45.4412 95.3602 44.4124 95.2002 43.3204C95.2523 42.157 95.7211 41.0506 96.5217 40.2017C98.2086 38.4603 100.398 37.2851 102.787 36.8393H104.059H105.968C106.879 36.7488 107.795 36.7162 108.709 36.7419Z" fill="#ADCC21"/>
<path d="M105.528 50.4354H106.996C107.566 50.4853 108.139 50.4853 108.709 50.4354C110.802 50.2955 112.824 49.6245 114.583 48.4862C115.329 48.0922 115.96 47.5127 116.414 46.8039C116.869 46.0952 117.132 45.2814 117.177 44.4417C117.2 44.1823 117.2 43.9214 117.177 43.662C116.589 40.6408 112.282 38.3018 107.143 38.3018C102.003 38.3018 96.9131 41.0306 96.9131 44.4417C96.9669 45.2113 97.2036 45.9572 97.6035 46.618C98.0035 47.2788 98.5553 47.8356 99.2136 48.2426C101.09 49.5104 103.267 50.2665 105.528 50.4354ZM104.647 45.0264C104.449 44.7799 104.315 44.4893 104.255 44.1797C104.195 43.8701 104.212 43.5506 104.303 43.2487C104.395 42.9468 104.558 42.6716 104.78 42.4465C105.002 42.2214 105.275 42.0533 105.577 41.9565C106.314 41.8464 107.067 41.9594 107.74 42.2809C108.412 42.6024 108.971 43.1175 109.345 43.7595C109.531 44.0129 109.654 44.3062 109.705 44.6157C109.755 44.9253 109.732 45.2423 109.637 45.5412C109.541 45.8401 109.377 46.1125 109.156 46.3363C108.935 46.5601 108.665 46.729 108.366 46.8294C107.636 46.936 106.891 46.821 106.227 46.4994C105.564 46.1777 105.013 45.6644 104.647 45.0264Z" fill="#93B010"/>
<path d="M104.647 45.026C104.449 44.7794 104.315 44.4889 104.255 44.1792C104.195 43.8696 104.212 43.5501 104.303 43.2483C104.395 42.9464 104.558 42.6711 104.78 42.446C105.002 42.221 105.275 42.0528 105.577 41.956C106.314 41.8459 107.067 41.9589 107.739 42.2804C108.412 42.6019 108.971 43.1171 109.345 43.759C109.531 44.0124 109.654 44.3057 109.705 44.6153C109.755 44.9248 109.732 45.2418 109.637 45.5408C109.541 45.8397 109.377 46.112 109.156 46.3358C108.935 46.5596 108.665 46.7286 108.366 46.829C107.636 46.9356 106.891 46.8205 106.227 46.4989C105.563 46.1773 105.013 45.664 104.647 45.026Z" fill="#799400"/>
<path d="M103.962 40.1528C103.962 39.3732 105.528 38.2037 108.024 37.5702C110.521 36.9367 112.674 37.0342 112.919 37.5702C113.164 38.1062 110.716 37.5702 108.024 38.2037C105.332 38.8372 104.207 40.8838 103.962 40.1528Z" fill="white"/>
</g>
<defs>
<linearGradient id="paint0_linear_1203_15583" x1="80.3208" y1="22.6106" x2="151.041" y2="101.864" gradientUnits="userSpaceOnUse">
<stop stop-color="white"/>
<stop offset="1"/>
</linearGradient>
<clipPath id="clip0_1203_15583">
<rect width="209" height="280" fill="white"/>
</clipPath>
</defs>
</svg>
